<?xml version="1.0" encoding="UTF-8"?><svg id="Layer_1" xmlns="http://www.w3.org/2000/svg" viewBox="0 0 256 256"><defs><style>.cls-1{fill:#ff807d;}</style></defs><rect class="cls-1" x="2" y="197" width="252" height="59" rx="29.5" ry="29.5"/><path d="M151.25,183.53h-44.49c-4.97,0-9-4.03-9-9v-14.76c-20.62-10.6-33.86-31.35-35.01-55.53-.84-17.57,5.07-34.45,16.64-47.54,11.62-13.15,27.67-21.01,45.2-22.15,18.58-1.2,36.24,5.11,49.76,17.78,13.34,12.5,20.98,30.14,20.99,48.41h0c0,25.38-13.59,47.91-35.09,59.03v14.77c0,4.97-4.03,9-9,9ZM115.76,165.53h26.49v-11.54c0-3.68,2.24-6.99,5.66-8.36,17.88-7.14,29.43-24.76,29.43-44.89,0-13.51-5.43-26.04-15.29-35.28-9.85-9.23-22.73-13.83-36.29-12.95-26.53,1.72-46.31,24.07-45.03,50.88.91,19.19,12.17,35.38,29.37,42.25,3.42,1.37,5.66,4.68,5.66,8.36v11.54Z"/><path d="M140.91,205.25h-23.82c-4.97,0-9-4.03-9-9s4.03-9,9-9h23.82c4.97,0,9,4.03,9,9s-4.03,9-9,9Z"/><path d="M131.78,227.66h-5.55c-4.97,0-9-4.03-9-9s4.03-9,9-9h5.55c4.97,0,9,4.03,9,9s-4.03,9-9,9Z"/><path d="M98.13,110.41c-4.83,0-8.83-3.86-8.99-8.73-.06-1.72-.25-17.13,10.74-28.5,7.1-7.34,16.9-11.07,29.12-11.07,4.97,0,9,4.03,9,9s-4.03,9-9,9c-7.11,0-12.52,1.85-16.09,5.49-5.89,6-5.78,15.44-5.78,15.54.17,4.97-3.72,9.1-8.69,9.27-.1,0-.21,0-.31,0Z"/></svg>