<?xml version="1.0" encoding="UTF-8"?><svg id="Layer_1" xmlns="http://www.w3.org/2000/svg" viewBox="0 0 256 256"><defs><style>.cls-1{fill:#ff807d;}</style></defs><rect class="cls-1" x="2" y="196.76" width="252" height="59" rx="29.5" ry="29.5"/><path d="M127.91,115.06c-15.67,0-30.49-1.33-41.73-3.76-6.46-1.39-23.6-5.09-23.6-17.38s17.15-15.99,23.6-17.38c11.24-2.42,26.06-3.76,41.73-3.76s30.49,1.33,41.73,3.76c6.46,1.39,23.6,5.09,23.6,17.38s-17.15,15.99-23.6,17.38c-11.24,2.42-26.06,3.76-41.73,3.76ZM176.69,97.78h0,0ZM90.97,93.91c8.39,1.7,20.89,3.14,36.94,3.14s28.55-1.44,36.94-3.14c-8.39-1.7-20.89-3.14-36.94-3.14s-28.55,1.44-36.94,3.14Z"/><path d="M127.91,229.36c-15.15,0-30.25-2.12-42.53-5.97-15.35-4.81-22.81-11.09-22.81-19.17v-110.3c0-4.97,4.03-9,9-9s9,4.03,9,9v107.93c4.75,3.29,22.23,9.51,47.33,9.51s42.58-6.22,47.33-9.51v-107.93c0-4.97,4.03-9,9-9s9,4.03,9,9v110.3c0,8.09-7.46,14.36-22.81,19.17-12.27,3.85-27.38,5.97-42.53,5.97Z"/><path d="M127.91,153.31c-2.67,0-65.33-.26-65.33-23.14,0-4.97,4.03-9,9-9,3.92,0,7.26,2.51,8.49,6.02,4.24,2.77,21.47,8.13,47.84,8.13s43.6-5.36,47.84-8.13c1.23-3.5,4.57-6.02,8.49-6.02,4.97,0,9,4.03,9,9,0,22.88-62.67,23.14-65.33,23.14Z"/><path d="M127.91,193.06c-18.17,0-65.33-4.34-65.33-24.14,0-4.97,4.03-9,9-9,3.99,0,7.37,2.59,8.55,6.18,4.16,2.95,21.87,8.96,47.79,8.96s43.62-6.01,47.78-8.96c1.18-3.59,4.56-6.18,8.55-6.18,4.97,0,9,4.03,9,9,0,19.81-47.16,24.14-65.33,24.14Z"/></svg>