<?xml version="1.0" encoding="UTF-8"?>
<svg id="Layer_1" data-name="Layer 1" xmlns="http://www.w3.org/2000/svg" xmlns:xlink="http://www.w3.org/1999/xlink" viewBox="0 0 984 200">
  <defs>
    <style>
      .cls-1 {
        clip-path: url(#clippath-1);
      }

      .cls-2 {
        clip-path: url(#clippath-2);
      }

      .cls-3 {
        fill: #fff;
      }

      .cls-4 {
        clip-path: url(#clippath);
      }
    </style>
    <clipPath id="clippath">
      <path class="cls-3" d="M34.4,3.06S2.4,21.98,1.29,27.51s21.69,56.56,27.59,57.96c5.9,1.4,52.44-24.24,54.21-26.6s-5.87-35.51-9.73-37.48c-3.86-1.97-33.72-17.48-38.96-18.34Z"/>
    </clipPath>
    <clipPath id="clippath-1">
      <path class="cls-3" d="M21.13,84.26c-3.3.43-7.11,9.24-7.28,12.24s3.87,26.78,6.91,29.25c3.04,2.47,17.49,6.85,20.63,6.1,3.14-.76,28.8-20.93,26.61-26.61-2.06-5.36-10.49-10.86-16.24-13.27-4.04-1.69-23.92-8.57-30.63-7.71Z"/>
    </clipPath>
    <clipPath id="clippath-2">
      <path class="cls-3" d="M51.33,136.57c8.89,7.62,6.23,12.27,3.4,17-2.83,4.73-14.07,20.47-22.46,17.2-6.64-2.59-12.72-12.97-12.59-19.48.08-4.22,11.64-20.61,19.48-19.77,5.25.56,7.36.93,12.17,5.05Z"/>
    </clipPath>
  </defs>
  <g>
    <path class="cls-3" d="M132.78,164.5c-8.21,0-15.3-1.63-21.25-4.89-5.96-3.26-10.52-7.92-13.69-13.97-3.17-6.05-4.75-13.28-4.75-21.68s1.58-15.15,4.75-21.25c3.17-6.1,7.66-10.85,13.48-14.25,5.82-3.4,12.67-5.1,20.55-5.1,5.54,0,10.62.87,15.24,2.6,4.62,1.74,8.63,4.3,12.04,7.71,3.4,3.4,6.03,7.59,7.88,12.56,1.85,4.97,2.78,10.72,2.78,17.24v6.19h-67.99v-14.29h56.3l-11.47,3.38c0-3.66-.55-6.8-1.65-9.43-1.1-2.63-2.73-4.65-4.89-6.05-2.16-1.41-4.83-2.11-8.02-2.11s-5.89.72-8.09,2.15c-2.21,1.43-3.88,3.43-5.03,5.98-1.15,2.56-1.72,5.55-1.72,8.97v10.28c0,4.04.67,7.4,2.01,10.1,1.34,2.7,3.2,4.72,5.6,6.05s5.18,2.01,8.38,2.01c2.21,0,4.21-.3,6.02-.92,1.81-.61,3.35-1.52,4.65-2.75,1.29-1.22,2.26-2.7,2.92-4.43l21.89,3.59c-1.31,4.5-3.58,8.43-6.79,11.79-3.21,3.36-7.27,5.95-12.18,7.78-4.9,1.83-10.55,2.74-16.93,2.74Z"/>
    <path class="cls-3" d="M217.3,164.5c-8.21,0-15.27-1.7-21.18-5.1-5.91-3.4-10.45-8.14-13.62-14.22-3.17-6.08-4.75-13.15-4.75-21.22s1.58-15.21,4.75-21.29c3.17-6.08,7.71-10.81,13.62-14.22,5.91-3.4,12.97-5.1,21.18-5.1,5.02,0,9.62.66,13.79,1.97,4.18,1.31,7.84,3.18,10.98,5.6,3.14,2.42,5.69,5.35,7.64,8.8,1.95,3.45,3.23,7.31,3.84,11.58l-22.66,3.8c-.38-2.06-.95-3.89-1.72-5.49-.77-1.59-1.71-2.96-2.82-4.08-1.1-1.13-2.39-1.97-3.87-2.53-1.48-.56-3.11-.84-4.89-.84-3.14,0-5.82.86-8.02,2.57-2.21,1.71-3.88,4.2-5.03,7.46-1.15,3.26-1.72,7.14-1.72,11.65s.57,8.4,1.72,11.68c1.15,3.28,2.83,5.81,5.03,7.57,2.2,1.76,4.88,2.64,8.02,2.64,1.83,0,3.47-.29,4.93-.88,1.45-.59,2.76-1.45,3.91-2.6,1.15-1.15,2.11-2.56,2.89-4.22.77-1.67,1.33-3.55,1.65-5.67l22.66,3.66c-.61,4.41-1.89,8.36-3.84,11.86-1.95,3.5-4.49,6.49-7.64,8.97-3.14,2.49-6.82,4.39-11.01,5.7-4.2,1.31-8.81,1.97-13.83,1.97Z"/>
    <path class="cls-3" d="M300.29,164.5c-8.21,0-15.27-1.7-21.18-5.1-5.91-3.4-10.45-8.14-13.62-14.22-3.17-6.08-4.75-13.15-4.75-21.22s1.58-15.21,4.75-21.29c3.17-6.08,7.71-10.81,13.62-14.22,5.91-3.4,12.97-5.1,21.18-5.1s15.27,1.7,21.18,5.1c5.91,3.4,10.44,8.14,13.58,14.22,3.14,6.08,4.72,13.17,4.72,21.29s-1.57,15.14-4.72,21.22c-3.14,6.08-7.67,10.82-13.58,14.22-5.91,3.4-12.97,5.1-21.18,5.1ZM300.29,145.71c3.14,0,5.79-.92,7.95-2.75,2.16-1.83,3.79-4.39,4.89-7.67,1.1-3.28,1.65-7.11,1.65-11.47s-.55-8.17-1.65-11.44c-1.1-3.26-2.73-5.78-4.89-7.57-2.16-1.78-4.81-2.67-7.95-2.67s-5.8.89-7.95,2.67c-2.16,1.78-3.79,4.31-4.89,7.57-1.1,3.26-1.65,7.07-1.65,11.44s.55,8.19,1.65,11.47c1.1,3.28,2.73,5.84,4.89,7.67,2.16,1.83,4.81,2.75,7.95,2.75Z"/>
    <path class="cls-3" d="M383.18,164.5c-6.71,0-12.65-.95-17.81-2.85-5.16-1.9-9.36-4.65-12.6-8.23-3.24-3.59-5.33-7.89-6.26-12.92l22.8-3.59c.99,3.43,2.65,6.01,5,7.74,2.35,1.74,5.61,2.6,9.78,2.6,3.42,0,6.12-.6,8.09-1.79,1.97-1.2,2.96-2.78,2.96-4.75,0-1.83-.79-3.3-2.36-4.4-1.57-1.1-4-1.98-7.28-2.64l-13.72-2.67c-7.79-1.5-13.62-4.14-17.49-7.92-3.87-3.78-5.81-8.69-5.81-14.75,0-5.25,1.42-9.74,4.26-13.44,2.84-3.71,6.85-6.56,12.04-8.55,5.18-1.99,11.3-2.99,18.33-2.99,6.57,0,12.28.88,17.14,2.64,4.86,1.76,8.77,4.27,11.75,7.53,2.98,3.26,4.91,7.14,5.81,11.65l-21.68,3.45c-.7-2.63-2.15-4.68-4.33-6.16-2.18-1.48-4.94-2.22-8.27-2.22-2.96,0-5.45.6-7.5,1.79s-3.06,2.8-3.06,4.82c0,1.6.63,2.99,1.9,4.19,1.27,1.2,3.59,2.12,6.97,2.78l15.06,2.82c7.79,1.5,13.59,3.99,17.42,7.46,3.82,3.47,5.74,8.07,5.74,13.79,0,5.4-1.58,10.09-4.75,14.08-3.17,3.99-7.52,7.07-13.06,9.25-5.54,2.18-11.89,3.27-19.07,3.27Z"/>
    <path class="cls-3" d="M427.59,190.61l5.49-17.95,3.1.84c2.96.75,5.55.96,7.78.63,2.23-.33,3.94-1.15,5.14-2.46,1.2-1.31,1.72-3.05,1.58-5.21l-.07-3.31-29.35-78.83h25.9l11.75,38.5c1.59,5.26,2.85,10.53,3.77,15.84.92,5.3,2.01,11,3.27,17.1h-5.07c1.27-6.1,2.53-11.82,3.8-17.17,1.27-5.35,2.72-10.6,4.36-15.77l12.6-38.5h25.62l-33.01,86.99c-1.6,4.22-3.68,7.96-6.26,11.23-2.58,3.26-5.88,5.82-9.89,7.67-4.01,1.85-8.97,2.78-14.89,2.78-3,0-5.9-.22-8.69-.67-2.79-.45-5.1-1.02-6.93-1.72Z"/>
    <path class="cls-3" d="M545.35,164.5c-6.71,0-12.65-.95-17.81-2.85-5.16-1.9-9.36-4.65-12.6-8.23-3.24-3.59-5.33-7.89-6.26-12.92l22.8-3.59c.99,3.43,2.65,6.01,5,7.74,2.35,1.74,5.61,2.6,9.78,2.6,3.42,0,6.12-.6,8.09-1.79,1.97-1.2,2.96-2.78,2.96-4.75,0-1.83-.79-3.3-2.36-4.4-1.57-1.1-4-1.98-7.28-2.64l-13.72-2.67c-7.79-1.5-13.62-4.14-17.49-7.92-3.87-3.78-5.81-8.69-5.81-14.75,0-5.25,1.42-9.74,4.26-13.44,2.84-3.71,6.85-6.56,12.03-8.55,5.18-1.99,11.3-2.99,18.33-2.99,6.57,0,12.28.88,17.14,2.64,4.86,1.76,8.77,4.27,11.75,7.53,2.98,3.26,4.91,7.14,5.81,11.65l-21.68,3.45c-.7-2.63-2.15-4.68-4.33-6.16-2.18-1.48-4.94-2.22-8.27-2.22-2.96,0-5.45.6-7.5,1.79s-3.06,2.8-3.06,4.82c0,1.6.63,2.99,1.9,4.19,1.27,1.2,3.59,2.12,6.97,2.78l15.06,2.82c7.79,1.5,13.59,3.99,17.42,7.46s5.74,8.07,5.74,13.79c0,5.4-1.58,10.09-4.75,14.08-3.17,3.99-7.52,7.07-13.06,9.25-5.54,2.18-11.89,3.27-19.07,3.27Z"/>
    <path class="cls-3" d="M635.97,84.34v18.23h-49.13v-18.23h49.13ZM597.26,65.62h24.56v73.34c0,2.07.49,3.6,1.48,4.61.99,1.01,2.58,1.51,4.79,1.51.84,0,2.03-.09,3.55-.28,1.52-.19,2.61-.38,3.27-.56l3.17,17.88c-2.77.8-5.44,1.34-8.02,1.62-2.58.28-5.02.42-7.32.42-8.35,0-14.69-1.96-19-5.88-4.32-3.92-6.47-9.63-6.47-17.14v-75.52Z"/>
    <path class="cls-3" d="M682.18,164.5c-8.21,0-15.3-1.63-21.25-4.89-5.96-3.26-10.52-7.92-13.69-13.97s-4.75-13.28-4.75-21.68,1.58-15.15,4.75-21.25c3.17-6.1,7.66-10.85,13.48-14.25,5.82-3.4,12.67-5.1,20.55-5.1,5.54,0,10.62.87,15.24,2.6,4.62,1.74,8.63,4.3,12.04,7.71,3.4,3.4,6.03,7.59,7.88,12.56,1.85,4.97,2.78,10.72,2.78,17.24v6.19h-67.99v-14.29h56.3l-11.47,3.38c0-3.66-.55-6.8-1.65-9.43-1.1-2.63-2.73-4.65-4.89-6.05s-4.83-2.11-8.02-2.11-5.89.72-8.09,2.15c-2.21,1.43-3.88,3.43-5.03,5.98-1.15,2.56-1.72,5.55-1.72,8.97v10.28c0,4.04.67,7.4,2,10.1,1.34,2.7,3.2,4.72,5.6,6.05,2.39,1.34,5.18,2.01,8.38,2.01,2.21,0,4.21-.3,6.02-.92,1.81-.61,3.35-1.52,4.65-2.75,1.29-1.22,2.26-2.7,2.92-4.43l21.89,3.59c-1.31,4.5-3.58,8.43-6.79,11.79-3.21,3.36-7.27,5.95-12.18,7.78-4.9,1.83-10.55,2.74-16.93,2.74Z"/>
    <path class="cls-3" d="M743.63,164.5c-3.75,0-6.91-1.26-9.47-3.76-2.56-2.51-3.84-5.64-3.84-9.4s1.28-6.81,3.84-9.33c2.56-2.51,5.71-3.76,9.47-3.76s6.91,1.25,9.47,3.76c2.56,2.51,3.84,5.62,3.84,9.33s-1.28,6.89-3.84,9.4c-2.56,2.51-5.71,3.76-9.47,3.76Z"/>
    <path class="cls-3" d="M773.24,163.03v-78.69h22.59l1.41,20.41h-1.69c1.22-5.11,3.04-9.24,5.45-12.39,2.42-3.14,5.23-5.44,8.45-6.9,3.21-1.45,6.6-2.18,10.17-2.18,5.63,0,10.17,1.81,13.62,5.42,3.45,3.61,6.11,9.53,7.99,17.74h-2.74c1.27-5.49,3.26-9.95,5.98-13.37,2.72-3.42,5.91-5.91,9.57-7.46,3.66-1.55,7.46-2.32,11.4-2.32,4.93,0,9.28,1.07,13.06,3.2,3.78,2.14,6.74,5.19,8.9,9.15,2.16,3.97,3.24,8.74,3.24,14.32v53.07h-24.49v-47.51c0-3.99-1.04-7.01-3.13-9.08-2.09-2.06-4.75-3.1-7.99-3.1-2.3,0-4.31.52-6.02,1.55-1.71,1.03-3.02,2.47-3.91,4.33-.89,1.85-1.34,4.05-1.34,6.58v47.23h-23.58v-47.86c0-3.61-1.01-6.49-3.03-8.62-2.02-2.13-4.67-3.2-7.95-3.2-2.25,0-4.23.52-5.95,1.55-1.71,1.03-3.05,2.5-4.01,4.4-.96,1.9-1.44,4.23-1.44,7v46.73h-24.56Z"/>
    <path class="cls-3" d="M937.61,164.5c-6.71,0-12.65-.95-17.81-2.85-5.16-1.9-9.36-4.65-12.6-8.23-3.24-3.59-5.33-7.89-6.26-12.92l22.8-3.59c.99,3.43,2.65,6.01,5,7.74,2.35,1.74,5.61,2.6,9.78,2.6,3.42,0,6.12-.6,8.09-1.79,1.97-1.2,2.96-2.78,2.96-4.75,0-1.83-.79-3.3-2.36-4.4-1.57-1.1-4-1.98-7.28-2.64l-13.72-2.67c-7.79-1.5-13.62-4.14-17.49-7.92-3.87-3.78-5.81-8.69-5.81-14.75,0-5.25,1.42-9.74,4.26-13.44,2.84-3.71,6.85-6.56,12.04-8.55,5.18-1.99,11.3-2.99,18.33-2.99,6.57,0,12.28.88,17.14,2.64s8.77,4.27,11.75,7.53c2.98,3.26,4.92,7.14,5.81,11.65l-21.68,3.45c-.7-2.63-2.15-4.68-4.33-6.16-2.18-1.48-4.94-2.22-8.27-2.22-2.96,0-5.45.6-7.5,1.79s-3.06,2.8-3.06,4.82c0,1.6.63,2.99,1.9,4.19,1.27,1.2,3.59,2.12,6.97,2.78l15.06,2.82c7.79,1.5,13.59,3.99,17.42,7.46s5.74,8.07,5.74,13.79c0,5.4-1.58,10.09-4.75,14.08-3.17,3.99-7.52,7.07-13.06,9.25-5.54,2.18-11.89,3.27-19.07,3.27Z"/>
  </g>
  <g>
    <path class="cls-3" d="M34.4,3.06S2.4,21.98,1.29,27.51s21.69,56.56,27.59,57.96c5.9,1.4,52.44-24.24,54.21-26.6s-5.87-35.51-9.73-37.48c-3.86-1.97-33.72-17.48-38.96-18.34Z"/>
    <g class="cls-4">
      <path class="cls-3" d="M73.36,21.41c-.11,8.65-10.78,24.63-15.94,29.62s-28.54,34.45-28.54,34.45l34.87,4.52,40.96-31.47-31.36-37.12"/>
    </g>
  </g>
  <g>
    <path class="cls-3" d="M21.13,84.26c-3.3.43-7.11,9.24-7.28,12.24s3.87,26.78,6.91,29.25c3.04,2.47,17.49,6.85,20.63,6.1,3.14-.76,28.8-20.93,26.61-26.61-2.06-5.36-10.49-10.86-16.24-13.27-4.04-1.69-23.92-8.57-30.63-7.71Z"/>
    <g class="cls-1">
      <path class="cls-3" d="M25.98,118.5c7.41-2.01,19.46-2.56,28.8-4.37,9.33-1.81,26.64-14.63,31.3-19.41,4.66-4.78,7.26,2.01,7.26,2.01l1.02,29.03-17.36,8-57.29-1.5,6.26-13.76"/>
      <polygon class="cls-3" points="7.28 72.75 -5.78 84.3 16.84 137.46 25.88 118.58 7.28 72.75"/>
    </g>
  </g>
  <g>
    <path class="cls-3" d="M51.33,136.57c8.89,7.62,6.23,12.27,3.4,17-2.83,4.73-14.07,20.47-22.46,17.2-6.64-2.59-12.72-12.97-12.59-19.48.08-4.22,11.64-20.61,19.48-19.77,5.25.56,7.36.93,12.17,5.05Z"/>
    <g class="cls-2">
      <path class="cls-3" d="M19.67,162.93s10.27,3.37,22.6-1.5c12.34-4.87,17.98-14.25,17.98-14.25l-2.83,15.24-2.66,20.48-30.97-1-4.12-18.99Z"/>
    </g>
  </g>
</svg>