<?xml version="1.0" encoding="UTF-8"?><svg id="Layer_1" xmlns="http://www.w3.org/2000/svg" xmlns:xlink="http://www.w3.org/1999/xlink" viewBox="0 0 1700 200"><defs><style>.cls-1{fill:#ff7f7a;}.cls-2{fill:#3ae668;}.cls-3{fill:#1d1d28;}.cls-4{fill:#ff9284;}.cls-5{clip-path:url(#clippath-1);}.cls-6{clip-path:url(#clippath-2);}.cls-7{fill:#5b58d1;}.cls-8{fill:#00ea55;}.cls-9{fill:#c75467;}.cls-10{fill:#7770f5;}.cls-11{fill:#24af69;}.cls-12{clip-path:url(#clippath);}.cls-13{fill:#7774f1;}</style><clipPath id="clippath"><path class="cls-13" d="M38.72,2.58S6.72,21.5,5.62,27.04s21.69,56.56,27.59,57.96c5.9,1.4,52.44-24.24,54.21-26.6s-5.87-35.51-9.73-37.48c-3.86-1.97-33.72-17.48-38.96-18.34Z"/></clipPath><clipPath id="clippath-1"><path class="cls-1" d="M25.45,83.78c-3.3.43-7.11,9.24-7.28,12.24s3.87,26.78,6.91,29.25c3.04,2.47,17.49,6.85,20.63,6.1,3.14-.76,28.8-20.93,26.61-26.61-2.06-5.36-10.49-10.86-16.24-13.27-4.04-1.69-23.92-8.57-30.63-7.71Z"/></clipPath><clipPath id="clippath-2"><path class="cls-2" d="M55.65,136.1c8.89,7.62,6.23,12.27,3.4,17-2.83,4.73-14.07,20.47-22.46,17.2-6.64-2.59-12.72-12.97-12.59-19.48.08-4.22,11.64-20.61,19.48-19.77,5.25.56,7.36.93,12.17,5.05Z"/></clipPath></defs><path class="cls-10" d="M1050.78,165.31c-4.97,0-9.48-.93-13.51-2.78-4.04-1.85-7.23-4.56-9.57-8.13-2.35-3.57-3.52-7.93-3.52-13.09,0-4.46.86-8.12,2.57-10.98,1.71-2.86,4.04-5.14,6.97-6.83,2.93-1.69,6.19-2.96,9.78-3.8,3.59-.84,7.24-1.48,10.94-1.9,4.64-.56,8.42-1.02,11.33-1.37,2.91-.35,5.05-.94,6.44-1.76,1.38-.82,2.08-2.15,2.08-3.98v-.42c0-2.96-.56-5.44-1.69-7.46-1.13-2.02-2.8-3.58-5.03-4.68-2.23-1.1-5.01-1.65-8.34-1.65s-6.37.53-8.83,1.58c-2.46,1.06-4.46,2.41-5.98,4.05-1.53,1.64-2.66,3.36-3.41,5.14l-14.57-3.8c1.78-4.69,4.34-8.47,7.67-11.33,3.33-2.86,7.15-4.95,11.47-6.26,4.32-1.31,8.77-1.97,13.37-1.97,3.19,0,6.57.38,10.13,1.13,3.57.75,6.92,2.11,10.06,4.08s5.7,4.74,7.67,8.31,2.96,8.21,2.96,13.93v52.22h-14.99v-10.77h-.77c-1.03,2.02-2.56,3.99-4.57,5.91-2.02,1.92-4.56,3.51-7.64,4.75-3.07,1.24-6.75,1.87-11.01,1.87ZM1054.23,152.85c4.22,0,7.84-.82,10.84-2.46,3-1.64,5.3-3.82,6.9-6.54,1.59-2.72,2.39-5.61,2.39-8.66v-10.06c-.56.56-1.63,1.07-3.2,1.51-1.57.45-3.37.84-5.38,1.2-2.02.35-3.97.65-5.84.88-1.88.24-3.43.42-4.64.56-2.91.38-5.57,1.01-7.99,1.9-2.42.89-4.34,2.16-5.77,3.8-1.43,1.64-2.15,3.82-2.15,6.54,0,2.49.64,4.58,1.94,6.26,1.29,1.69,3.04,2.96,5.24,3.8,2.21.84,4.76,1.27,7.67,1.27Z"/><path class="cls-10" d="M1137.32,165.1c-6.38,0-12.06-1.63-17.03-4.89-4.97-3.26-8.87-7.93-11.68-14.01-2.82-6.08-4.22-13.34-4.22-21.78s1.43-15.83,4.29-21.89c2.86-6.05,6.78-10.67,11.75-13.87,4.97-3.19,10.6-4.79,16.89-4.79,4.88,0,8.81.81,11.79,2.43,2.98,1.62,5.31,3.51,7,5.67,1.69,2.16,2.98,4.06,3.87,5.7h.84v-38.99h15.48v104.87h-15.06v-12.32h-1.27c-.89,1.69-2.21,3.61-3.94,5.77s-4.11,4.05-7.11,5.67c-3,1.62-6.88,2.43-11.61,2.43ZM1140.7,151.94c4.41,0,8.13-1.17,11.16-3.52,3.03-2.35,5.33-5.59,6.9-9.75,1.57-4.15,2.36-8.95,2.36-14.39s-.77-10.26-2.32-14.32c-1.55-4.06-3.84-7.22-6.86-9.5-3.03-2.28-6.77-3.41-11.23-3.41s-8.34,1.2-11.37,3.59c-3.03,2.39-5.3,5.64-6.83,9.75-1.52,4.11-2.29,8.74-2.29,13.9s.77,9.9,2.32,14.08c1.55,4.18,3.85,7.48,6.9,9.92,3.05,2.44,6.8,3.66,11.26,3.66Z"/><path class="cls-10" d="M1216.7,163.55l-29.7-78.69h16.75l15.55,44.69c1.74,4.93,3.21,9.87,4.43,14.82,1.22,4.95,2.51,9.87,3.87,14.75h-4.65c1.31-4.88,2.58-9.79,3.8-14.75,1.22-4.95,2.67-9.89,4.36-14.82l15.55-44.69h16.61l-29.7,78.69h-16.89Z"/><path class="cls-10" d="M1281.81,72.83c-2.67,0-4.96-.9-6.86-2.71-1.9-1.81-2.85-3.95-2.85-6.44s.95-4.76,2.85-6.54c1.9-1.78,4.19-2.67,6.86-2.67s4.97.89,6.9,2.67,2.89,3.96,2.89,6.54-.96,4.69-2.89,6.48-4.22,2.67-6.9,2.67ZM1274,163.55v-78.69h15.48v78.69h-15.48Z"/><path class="cls-10" d="M1335.17,165.17c-5.68,0-10.73-.82-15.17-2.46-4.43-1.64-8.07-4.07-10.91-7.28-2.84-3.21-4.73-7.14-5.67-11.79l14.57-3.03c1.08,4.08,3.1,7.11,6.05,9.08s6.71,2.96,11.26,2.96c4.97,0,8.94-1.04,11.89-3.13,2.96-2.09,4.43-4.59,4.43-7.5,0-2.53-.9-4.62-2.71-6.26-1.81-1.64-4.59-2.86-8.34-3.66l-13.23-3.03c-7.32-1.64-12.76-4.27-16.33-7.88-3.57-3.61-5.35-8.23-5.35-13.87,0-4.69,1.31-8.8,3.94-12.32,2.63-3.52,6.22-6.25,10.77-8.2,4.55-1.95,9.81-2.92,15.77-2.92s10.53.82,14.57,2.46c4.04,1.64,7.31,3.94,9.82,6.9,2.51,2.96,4.3,6.38,5.38,10.28l-13.87,3.03c-.99-2.77-2.7-5.2-5.14-7.29-2.44-2.09-5.98-3.13-10.63-3.13-4.27,0-7.84.96-10.7,2.89-2.86,1.92-4.29,4.36-4.29,7.32,0,2.63.95,4.75,2.85,6.37,1.9,1.62,5.01,2.92,9.33,3.91l12.67,2.81c7.27,1.64,12.67,4.22,16.19,7.74s5.28,8.02,5.28,13.51c0,4.79-1.37,9.02-4.12,12.7-2.75,3.68-6.55,6.57-11.4,8.66-4.86,2.09-10.5,3.13-16.93,3.13Z"/><path class="cls-10" d="M1414.34,165.17c-7.37,0-13.81-1.69-19.32-5.07-5.51-3.38-9.8-8.12-12.84-14.22-3.05-6.1-4.58-13.18-4.58-21.25s1.52-15.31,4.58-21.43c3.05-6.12,7.33-10.87,12.84-14.25,5.51-3.38,11.95-5.07,19.32-5.07s13.88,1.69,19.39,5.07c5.51,3.38,9.79,8.13,12.84,14.25,3.05,6.12,4.58,13.27,4.58,21.43s-1.53,15.16-4.58,21.25c-3.05,6.1-7.33,10.84-12.84,14.22-5.51,3.38-11.98,5.07-19.39,5.07ZM1414.34,152.08c4.79,0,8.74-1.25,11.86-3.77,3.12-2.51,5.44-5.84,6.97-9.99,1.52-4.15,2.29-8.71,2.29-13.69s-.76-9.63-2.29-13.83c-1.53-4.2-3.85-7.55-6.97-10.06-3.12-2.51-7.07-3.77-11.86-3.77s-8.66,1.26-11.75,3.77c-3.1,2.51-5.41,5.85-6.93,10.03-1.53,4.18-2.29,8.8-2.29,13.87s.76,9.54,2.29,13.69c1.52,4.15,3.84,7.48,6.93,9.99,3.1,2.51,7.01,3.77,11.75,3.77Z"/><path class="cls-10" d="M1465.74,163.55v-78.69h14.99v12.67h.85c1.45-4.32,3.99-7.7,7.6-10.13,3.61-2.44,7.72-3.66,12.32-3.66.99,0,2.11.04,3.38.11,1.27.07,2.32.18,3.17.32v14.78c-.56-.19-1.64-.38-3.24-.56-1.6-.19-3.21-.28-4.86-.28-3.57,0-6.78.75-9.64,2.25-2.86,1.5-5.09,3.58-6.69,6.23-1.6,2.65-2.39,5.71-2.39,9.18v47.79h-15.48Z"/><path class="cls-10" d="M1526.44,72.83c-2.67,0-4.96-.9-6.86-2.71-1.9-1.81-2.85-3.95-2.85-6.44s.95-4.76,2.85-6.54c1.9-1.78,4.19-2.67,6.86-2.67s4.97.89,6.9,2.67c1.92,1.78,2.89,3.96,2.89,6.54s-.96,4.69-2.89,6.48c-1.92,1.78-4.22,2.67-6.9,2.67ZM1518.62,163.55v-78.69h15.48v78.69h-15.48Z"/><path class="cls-10" d="M1585.94,165.17c-7.74,0-14.43-1.67-20.06-5-5.63-3.33-9.96-8.02-12.99-14.08s-4.54-13.16-4.54-21.33,1.49-15.18,4.47-21.33,7.19-10.94,12.63-14.39c5.44-3.45,11.82-5.17,19.14-5.17,4.5,0,8.84.74,13.02,2.22,4.17,1.48,7.93,3.79,11.26,6.93,3.33,3.14,5.97,7.21,7.92,12.21s2.92,11.06,2.92,18.19v5.49h-62.71v-11.54h54.76l-7.25,3.8c0-4.83-.75-9.09-2.25-12.77-1.5-3.68-3.72-6.56-6.65-8.62-2.93-2.06-6.61-3.1-11.02-3.1s-8.09,1.06-11.19,3.17c-3.1,2.11-5.46,4.89-7.07,8.34-1.62,3.45-2.43,7.21-2.43,11.3v7.88c0,5.4.93,9.96,2.78,13.69,1.85,3.73,4.44,6.54,7.78,8.45s7.2,2.85,11.61,2.85c2.91,0,5.54-.41,7.88-1.23,2.35-.82,4.37-2.06,6.09-3.73,1.71-1.67,3.01-3.72,3.91-6.16l14.57,3.45c-1.27,4.04-3.39,7.6-6.37,10.7-2.98,3.1-6.69,5.5-11.12,7.21-4.43,1.71-9.47,2.57-15.1,2.57Z"/><path class="cls-10" d="M1661.43,165.17c-5.68,0-10.73-.82-15.17-2.46-4.43-1.64-8.07-4.07-10.91-7.28-2.84-3.21-4.73-7.14-5.67-11.79l14.57-3.03c1.08,4.08,3.1,7.11,6.05,9.08s6.71,2.96,11.26,2.96c4.97,0,8.94-1.04,11.89-3.13,2.96-2.09,4.43-4.59,4.43-7.5,0-2.53-.9-4.62-2.71-6.26-1.81-1.64-4.59-2.86-8.34-3.66l-13.23-3.03c-7.32-1.64-12.76-4.27-16.33-7.88-3.57-3.61-5.35-8.23-5.35-13.87,0-4.69,1.31-8.8,3.94-12.32,2.63-3.52,6.22-6.25,10.77-8.2,4.55-1.95,9.81-2.92,15.77-2.92s10.53.82,14.57,2.46c4.04,1.64,7.31,3.94,9.82,6.9,2.51,2.96,4.3,6.38,5.38,10.28l-13.86,3.03c-.99-2.77-2.7-5.2-5.14-7.29-2.44-2.09-5.98-3.13-10.63-3.13-4.27,0-7.84.96-10.7,2.89-2.86,1.92-4.29,4.36-4.29,7.32,0,2.63.95,4.75,2.85,6.37,1.9,1.62,5.01,2.92,9.33,3.91l12.67,2.81c7.27,1.64,12.67,4.22,16.19,7.74,3.52,3.52,5.28,8.02,5.28,13.51,0,4.79-1.37,9.02-4.12,12.7-2.75,3.68-6.55,6.57-11.4,8.66-4.86,2.09-10.5,3.13-16.93,3.13Z"/><path class="cls-8" d="M22.77,171.94c-3.13,0-5.66,2.53-5.66,5.66s2.53,5.66,5.66,5.66h399.7l3.34-11.32H22.77Z"/><path class="cls-8" d="M978.77,171.94h-489.95l-3.34,11.32h493.3c3.13,0,5.66-2.53,5.66-5.66s-2.53-5.66-5.66-5.66Z"/><path class="cls-3" d="M137.1,164.03c-8.21,0-15.3-1.63-21.25-4.89-5.96-3.26-10.52-7.92-13.69-13.97-3.17-6.05-4.75-13.28-4.75-21.68s1.58-15.15,4.75-21.25c3.17-6.1,7.66-10.85,13.48-14.25,5.82-3.4,12.67-5.1,20.55-5.1,5.54,0,10.62.87,15.24,2.6,4.62,1.74,8.63,4.3,12.04,7.71,3.4,3.4,6.03,7.59,7.88,12.56,1.85,4.97,2.78,10.72,2.78,17.24v6.19h-67.99v-14.29h56.3l-11.47,3.38c0-3.66-.55-6.8-1.65-9.43-1.1-2.63-2.73-4.65-4.89-6.05-2.16-1.41-4.83-2.11-8.02-2.11s-5.89.72-8.09,2.15c-2.21,1.43-3.88,3.43-5.03,5.98-1.15,2.56-1.72,5.55-1.72,8.97v10.28c0,4.04.67,7.4,2.01,10.1,1.34,2.7,3.2,4.72,5.6,6.05s5.18,2.01,8.38,2.01c2.21,0,4.21-.3,6.02-.92,1.81-.61,3.35-1.52,4.65-2.75,1.29-1.22,2.26-2.7,2.92-4.43l21.89,3.59c-1.31,4.5-3.58,8.43-6.79,11.79-3.21,3.36-7.27,5.95-12.18,7.78-4.9,1.83-10.55,2.74-16.93,2.74Z"/><path class="cls-3" d="M137.1,164.28c-8.22,0-15.41-1.66-21.38-4.92-5.97-3.27-10.61-8-13.79-14.07-3.17-6.06-4.78-13.39-4.78-21.79s1.61-15.26,4.78-21.37c3.17-6.11,7.74-10.94,13.57-14.35,5.83-3.41,12.79-5.14,20.68-5.14,5.54,0,10.69.88,15.33,2.62,4.63,1.74,8.71,4.35,12.12,7.76,3.41,3.41,6.08,7.67,7.94,12.65,1.85,4.98,2.8,10.81,2.8,17.33v6.44h-52.55c.14,3.38.79,6.27,1.95,8.61,1.31,2.64,3.16,4.64,5.49,5.95,2.34,1.31,5.12,1.97,8.25,1.97,2.17,0,4.17-.3,5.94-.9,1.76-.59,3.29-1.5,4.55-2.69,1.26-1.19,2.22-2.65,2.86-4.34l.07-.19,22.37,3.67-.08.27c-1.32,4.52-3.62,8.52-6.85,11.89-3.22,3.37-7.35,6-12.27,7.84-4.91,1.83-10.63,2.76-17.01,2.76ZM136.19,83.13c-7.8,0-14.67,1.71-20.43,5.07-5.75,3.36-10.25,8.12-13.38,14.15-3.13,6.04-4.72,13.15-4.72,21.14s1.59,15.57,4.72,21.56c3.13,5.98,7.7,10.65,13.59,13.87,5.89,3.22,13,4.86,21.13,4.86,6.32,0,11.99-.92,16.84-2.73,4.85-1.81,8.91-4.4,12.08-7.72,3.11-3.24,5.34-7.08,6.65-11.42l-21.41-3.51c-.67,1.68-1.64,3.14-2.91,4.34-1.31,1.24-2.91,2.18-4.74,2.8-1.82.62-3.87.93-6.1.93-3.22,0-6.08-.69-8.5-2.04-2.43-1.36-4.34-3.43-5.7-6.16-1.19-2.41-1.87-5.37-2-8.83h-15.44v-14.79h15.59c.25-2.19.78-4.17,1.57-5.94,1.16-2.59,2.89-4.64,5.12-6.09,2.24-1.45,5.01-2.19,8.23-2.19s5.97.72,8.16,2.15c2.19,1.43,3.87,3.5,4.99,6.17.73,1.74,1.22,3.71,1.47,5.9h13.16l-13.46,3.96v-.33c0-1.09-.05-2.13-.15-3.13h-28.65c-.08.85-.12,1.73-.12,2.64v10.28c0,.3,0,.59.01.88h52.06v-5.94c0-6.46-.93-12.23-2.76-17.16-1.83-4.92-4.47-9.11-7.82-12.47-3.36-3.36-7.38-5.93-11.95-7.65-4.57-1.72-9.67-2.59-15.15-2.59ZM106.38,128.94h14.92c0-.29-.01-.58-.01-.88v-10.28c0-.91.04-1.79.12-2.64h-15.04v13.79ZM151.07,115.15c.09.9.14,1.83.15,2.79l9.49-2.79h-9.63ZM121.97,114.65h28.54c-.25-2.12-.73-4.03-1.43-5.71-1.08-2.57-2.69-4.57-4.8-5.94-2.11-1.37-4.76-2.07-7.89-2.07s-5.8.71-7.96,2.11c-2.15,1.4-3.82,3.37-4.94,5.88-.77,1.7-1.28,3.62-1.52,5.74Z"/><path class="cls-3" d="M221.63,164.03c-8.21,0-15.27-1.7-21.18-5.1-5.91-3.4-10.45-8.14-13.62-14.22-3.17-6.08-4.75-13.15-4.75-21.22s1.58-15.21,4.75-21.29c3.17-6.08,7.71-10.81,13.62-14.22,5.91-3.4,12.97-5.1,21.18-5.1,5.02,0,9.62.66,13.79,1.97,4.18,1.31,7.84,3.18,10.98,5.6,3.14,2.42,5.69,5.35,7.64,8.8,1.95,3.45,3.23,7.31,3.84,11.58l-22.66,3.8c-.38-2.06-.95-3.89-1.72-5.49-.77-1.59-1.71-2.96-2.82-4.08-1.1-1.13-2.39-1.97-3.87-2.53-1.48-.56-3.11-.84-4.89-.84-3.14,0-5.82.86-8.02,2.57-2.21,1.71-3.88,4.2-5.03,7.46-1.15,3.26-1.72,7.14-1.72,11.65s.57,8.4,1.72,11.68c1.15,3.28,2.83,5.81,5.03,7.57,2.2,1.76,4.88,2.64,8.02,2.64,1.83,0,3.47-.29,4.93-.88,1.45-.59,2.76-1.45,3.91-2.6,1.15-1.15,2.11-2.56,2.89-4.22.77-1.67,1.33-3.55,1.65-5.67l22.66,3.66c-.61,4.41-1.89,8.36-3.84,11.86-1.95,3.5-4.49,6.49-7.64,8.97-3.14,2.49-6.82,4.39-11.01,5.7-4.2,1.31-8.81,1.97-13.83,1.97Z"/><path class="cls-3" d="M221.63,164.28c-8.22,0-15.39-1.73-21.31-5.14-5.93-3.41-10.54-8.23-13.72-14.32-3.17-6.08-4.78-13.26-4.78-21.34s1.61-15.32,4.78-21.41c3.17-6.09,7.79-10.91,13.72-14.32,5.92-3.41,13.09-5.14,21.31-5.14,5.02,0,9.68.67,13.87,1.98,4.18,1.32,7.9,3.21,11.06,5.64,3.16,2.43,5.75,5.41,7.7,8.87,1.95,3.46,3.25,7.39,3.87,11.67l.03.24-23.15,3.88-.04-.24c-.37-2.04-.94-3.86-1.7-5.43-.76-1.56-1.69-2.91-2.77-4.02-1.07-1.1-2.34-1.93-3.78-2.47-1.44-.55-3.06-.83-4.8-.83-3.07,0-5.72.85-7.87,2.52-2.16,1.68-3.82,4.15-4.95,7.35-1.13,3.22-1.71,7.11-1.71,11.56s.58,8.36,1.71,11.6c1.13,3.22,2.79,5.73,4.95,7.45,2.15,1.72,4.8,2.58,7.87,2.58,1.79,0,3.42-.29,4.83-.86,1.42-.57,2.7-1.43,3.82-2.55,1.12-1.12,2.08-2.52,2.84-4.15.76-1.63,1.31-3.52,1.63-5.6l.04-.25.25.04,22.9,3.7-.03.24c-.61,4.42-1.91,8.44-3.86,11.95-1.95,3.51-4.54,6.55-7.7,9.05-3.15,2.49-6.89,4.43-11.1,5.74-4.21,1.31-8.88,1.98-13.9,1.98ZM221.63,83.13c-8.13,0-15.21,1.71-21.06,5.07-5.84,3.36-10.39,8.11-13.52,14.12-3.13,6.01-4.72,13.14-4.72,21.17s1.59,15.09,4.72,21.1c3.13,6,7.68,10.75,13.52,14.12,5.84,3.36,12.93,5.07,21.06,5.07,4.97,0,9.6-.66,13.75-1.96,4.15-1.3,7.83-3.2,10.93-5.66,3.1-2.45,5.65-5.45,7.57-8.9,1.89-3.39,3.16-7.27,3.77-11.53l-22.17-3.58c-.34,2.03-.89,3.87-1.63,5.48-.78,1.68-1.77,3.13-2.94,4.29-1.17,1.17-2.51,2.06-3.99,2.66-1.48.6-3.17.9-5.02.9-3.19,0-5.94-.91-8.18-2.69-2.23-1.78-3.95-4.36-5.11-7.68-1.15-3.29-1.74-7.25-1.74-11.77s.58-8.46,1.74-11.73c1.16-3.29,2.88-5.84,5.11-7.58,2.24-1.74,4.99-2.62,8.18-2.62,1.81,0,3.48.29,4.98.86,1.5.57,2.84,1.44,3.96,2.59,1.12,1.14,2.08,2.54,2.86,4.15.75,1.54,1.32,3.33,1.7,5.31l22.18-3.72c-.62-4.12-1.88-7.91-3.77-11.25-1.92-3.4-4.47-6.34-7.57-8.72-3.11-2.39-6.77-4.26-10.9-5.56-4.14-1.3-8.75-1.96-13.72-1.96Z"/><path class="cls-3" d="M304.61,164.03c-8.21,0-15.27-1.7-21.18-5.1-5.91-3.4-10.45-8.14-13.62-14.22-3.17-6.08-4.75-13.15-4.75-21.22s1.58-15.21,4.75-21.29c3.17-6.08,7.71-10.81,13.62-14.22,5.91-3.4,12.97-5.1,21.18-5.1s15.27,1.7,21.18,5.1c5.91,3.4,10.44,8.14,13.58,14.22,3.14,6.08,4.72,13.17,4.72,21.29s-1.57,15.14-4.72,21.22c-3.14,6.08-7.67,10.82-13.58,14.22-5.91,3.4-12.97,5.1-21.18,5.1ZM304.61,145.24c3.14,0,5.79-.92,7.95-2.75,2.16-1.83,3.79-4.39,4.89-7.67,1.1-3.28,1.65-7.11,1.65-11.47s-.55-8.17-1.65-11.44c-1.1-3.26-2.73-5.78-4.89-7.57-2.16-1.78-4.81-2.67-7.95-2.67s-5.8.89-7.95,2.67c-2.16,1.78-3.79,4.31-4.89,7.57-1.1,3.26-1.65,7.07-1.65,11.44s.55,8.19,1.65,11.47c1.1,3.28,2.73,5.84,4.89,7.67,2.16,1.83,4.81,2.75,7.95,2.75Z"/><path class="cls-3" d="M304.61,164.28c-8.22,0-15.39-1.73-21.31-5.14-5.93-3.41-10.54-8.23-13.72-14.32-3.17-6.08-4.78-13.26-4.78-21.34s1.61-15.32,4.78-21.41c3.17-6.09,7.79-10.91,13.72-14.32,5.92-3.41,13.09-5.14,21.31-5.14s15.39,1.73,21.31,5.14c5.93,3.41,10.53,8.23,13.68,14.32,3.15,6.09,4.74,13.29,4.74,21.4s-1.6,15.25-4.74,21.33c-3.15,6.09-7.75,10.91-13.68,14.32-5.92,3.41-13.09,5.14-21.31,5.14ZM304.61,83.13c-8.13,0-15.21,1.71-21.06,5.07-5.84,3.36-10.39,8.11-13.52,14.12-3.13,6.01-4.72,13.14-4.72,21.17s1.59,15.09,4.72,21.1c3.13,6,7.68,10.75,13.52,14.12,5.84,3.36,12.93,5.07,21.06,5.07s15.22-1.71,21.06-5.07c5.84-3.36,10.38-8.11,13.49-14.11,3.11-6.01,4.69-13.11,4.69-21.1s-1.58-15.16-4.69-21.18c-3.11-6-7.64-10.75-13.49-14.11-5.85-3.36-12.93-5.07-21.06-5.07ZM304.61,145.49c-3.19,0-5.92-.94-8.11-2.8-2.18-1.85-3.86-4.47-4.97-7.78-1.11-3.29-1.67-7.18-1.67-11.55s.56-8.25,1.67-11.52c1.11-3.29,2.78-5.87,4.97-7.68,2.19-1.81,4.92-2.73,8.11-2.73s5.92.92,8.11,2.73c2.19,1.81,3.86,4.39,4.97,7.68,1.11,3.28,1.67,7.15,1.67,11.52s-.56,8.25-1.67,11.55c-1.11,3.31-2.78,5.93-4.97,7.78-2.19,1.86-4.93,2.8-8.11,2.8ZM304.61,101.92c-3.07,0-5.69.88-7.79,2.62-2.11,1.75-3.73,4.25-4.81,7.45-1.09,3.22-1.64,7.04-1.64,11.36s.55,8.15,1.64,11.39c1.08,3.22,2.7,5.77,4.82,7.56,2.1,1.78,4.72,2.69,7.79,2.69s5.69-.9,7.79-2.69c2.11-1.79,3.73-4.34,4.82-7.56,1.09-3.25,1.64-7.08,1.64-11.39s-.55-8.13-1.64-11.36c-1.08-3.2-2.7-5.71-4.81-7.45-2.1-1.74-4.73-2.62-7.79-2.62Z"/><path class="cls-3" d="M387.5,164.03c-6.71,0-12.65-.95-17.81-2.85-5.16-1.9-9.36-4.65-12.6-8.23-3.24-3.59-5.33-7.89-6.26-12.92l22.8-3.59c.99,3.43,2.65,6.01,5,7.74,2.35,1.74,5.61,2.6,9.78,2.6,3.42,0,6.12-.6,8.09-1.79,1.97-1.2,2.96-2.78,2.96-4.75,0-1.83-.79-3.3-2.36-4.4-1.57-1.1-4-1.98-7.28-2.64l-13.72-2.67c-7.79-1.5-13.62-4.14-17.49-7.92-3.87-3.78-5.81-8.69-5.81-14.75,0-5.25,1.42-9.74,4.26-13.44,2.84-3.71,6.85-6.56,12.04-8.55,5.18-1.99,11.3-2.99,18.33-2.99,6.57,0,12.28.88,17.14,2.64,4.86,1.76,8.77,4.27,11.75,7.53,2.98,3.26,4.91,7.14,5.81,11.65l-21.68,3.45c-.7-2.63-2.15-4.68-4.33-6.16-2.18-1.48-4.94-2.22-8.27-2.22-2.96,0-5.45.6-7.5,1.79s-3.06,2.8-3.06,4.82c0,1.6.63,2.99,1.9,4.19,1.27,1.2,3.59,2.12,6.97,2.78l15.06,2.82c7.79,1.5,13.59,3.99,17.42,7.46,3.82,3.47,5.74,8.07,5.74,13.79,0,5.4-1.58,10.09-4.75,14.08-3.17,3.99-7.52,7.07-13.06,9.25-5.54,2.18-11.89,3.27-19.07,3.27Z"/><path class="cls-3" d="M387.5,164.28c-6.71,0-12.73-.96-17.89-2.87-5.17-1.9-9.45-4.7-12.7-8.3-3.25-3.61-5.38-7.99-6.32-13.04l-.05-.25,23.28-3.66.06.21c.97,3.36,2.62,5.92,4.91,7.61,2.29,1.7,5.53,2.55,9.63,2.55,3.36,0,6.04-.59,7.96-1.76,1.91-1.16,2.84-2.64,2.84-4.54,0-1.76-.74-3.13-2.25-4.19-1.54-1.08-3.96-1.95-7.19-2.6l-13.72-2.67c-7.8-1.5-13.73-4.19-17.62-7.98-3.9-3.81-5.88-8.83-5.88-14.92,0-5.29,1.45-9.86,4.31-13.59,2.85-3.73,6.94-6.63,12.14-8.63,5.19-2,11.39-3.01,18.42-3.01,6.57,0,12.36.89,17.22,2.65,4.87,1.77,8.86,4.32,11.85,7.6,3,3.28,4.97,7.24,5.87,11.77l.05.25-22.16,3.52-.06-.22c-.68-2.56-2.11-4.58-4.23-6.02-2.13-1.44-4.86-2.17-8.13-2.17-2.9,0-5.38.59-7.37,1.76-1.98,1.16-2.94,2.66-2.94,4.6,0,1.52.61,2.86,1.82,4.01,1.23,1.16,3.53,2.07,6.84,2.72l15.06,2.82c7.8,1.5,13.7,4.03,17.54,7.52,3.86,3.51,5.82,8.21,5.82,13.98,0,5.43-1.62,10.22-4.81,14.23-3.18,4-7.61,7.14-13.16,9.33-5.54,2.18-11.99,3.29-19.17,3.29ZM351.13,140.23c.95,4.85,3.02,9.06,6.16,12.54,3.2,3.54,7.4,6.29,12.5,8.17,5.11,1.88,11.07,2.83,17.72,2.83,7.11,0,13.5-1.1,18.98-3.25,5.47-2.16,9.83-5.24,12.95-9.18,3.12-3.92,4.7-8.61,4.7-13.92,0-5.62-1.9-10.2-5.65-13.61-3.77-3.42-9.59-5.91-17.3-7.4l-15.06-2.82c-3.41-.66-5.8-1.62-7.09-2.84-1.31-1.24-1.98-2.71-1.98-4.37,0-2.1,1.07-3.8,3.19-5.04,2.07-1.21,4.64-1.83,7.62-1.83,3.37,0,6.2.76,8.41,2.26,2.16,1.47,3.63,3.51,4.37,6.08l21.2-3.37c-.9-4.33-2.82-8.12-5.69-11.27-2.94-3.21-6.86-5.73-11.65-7.46-4.81-1.74-10.54-2.62-17.05-2.62-6.97,0-13.11,1-18.24,2.97-5.12,1.97-9.13,4.82-11.93,8.47-2.79,3.64-4.21,8.12-4.21,13.29,0,5.96,1.93,10.86,5.73,14.57,3.82,3.72,9.66,6.37,17.36,7.85l13.73,2.67c3.3.66,5.79,1.56,7.38,2.68,1.64,1.15,2.46,2.7,2.46,4.6,0,2.05-1.04,3.72-3.08,4.96-2,1.21-4.77,1.83-8.22,1.83-4.21,0-7.55-.89-9.93-2.65-2.33-1.72-4.02-4.3-5.03-7.66l-22.33,3.52Z"/><path class="cls-3" d="M431.91,190.14l5.49-17.95,3.1.84c2.96.75,5.55.96,7.78.63,2.23-.33,3.94-1.15,5.14-2.46,1.2-1.31,1.72-3.05,1.58-5.21l-.07-3.31-29.35-78.83h25.9l11.75,38.5c1.59,5.26,2.85,10.53,3.77,15.84.92,5.3,2.01,11,3.27,17.1h-5.07c1.27-6.1,2.53-11.82,3.8-17.17,1.27-5.35,2.72-10.6,4.36-15.77l12.6-38.5h25.62l-33.01,86.99c-1.6,4.22-3.68,7.96-6.26,11.23-2.58,3.26-5.88,5.82-9.89,7.67-4.01,1.85-8.97,2.78-14.89,2.78-3,0-5.9-.22-8.69-.67-2.79-.45-5.1-1.02-6.93-1.72Z"/><path class="cls-3" d="M447.54,192.78c-3,0-5.94-.23-8.73-.67-2.8-.45-5.15-1.03-6.98-1.74l-.22-.08,5.63-18.4,3.33.91c2.91.74,5.49.95,7.67.63,2.16-.32,3.84-1.12,4.99-2.38,1.14-1.26,1.65-2.95,1.52-5.02l-.07-3.28-29.46-79.12h26.44l.05.18,11.75,38.5c1.59,5.25,2.86,10.59,3.77,15.87.21,1.19.42,2.41.65,3.65.29-1.27.58-2.51.87-3.73,1.26-5.33,2.73-10.64,4.37-15.78l12.66-38.67h26.16l-.13.34-33.01,86.99c-1.6,4.23-3.72,8.02-6.3,11.29-2.59,3.28-5.95,5.88-9.98,7.74-4.03,1.86-9.07,2.8-14.99,2.8ZM432.22,189.99c1.77.66,4.01,1.2,6.66,1.63,2.77.44,5.68.67,8.65.67,5.85,0,10.82-.93,14.78-2.76,3.96-1.83,7.25-4.39,9.8-7.6,2.55-3.23,4.65-6.98,6.23-11.16l32.88-86.65h-25.08l-12.54,38.33c-1.63,5.13-3.1,10.43-4.36,15.75-.38,1.58-.75,3.21-1.13,4.87.71,3.88,1.52,7.96,2.4,12.2l.06.3h-5.68l.06-.3c.88-4.23,1.77-8.32,2.65-12.21-.3-1.64-.59-3.24-.86-4.8-.91-5.26-2.17-10.58-3.76-15.81l-11.7-38.32h-25.35l29.24,78.53.07,3.35c.14,2.21-.41,4.02-1.65,5.38-1.23,1.35-3.01,2.21-5.29,2.54-2.25.33-4.9.12-7.88-.64l-2.87-.78-5.35,17.49ZM465.51,155.05h4.45c-.77-3.72-1.48-7.32-2.12-10.76-.78,3.45-1.56,7.05-2.33,10.76Z"/><path class="cls-3" d="M549.67,164.03c-6.71,0-12.65-.95-17.81-2.85-5.16-1.9-9.36-4.65-12.6-8.23-3.24-3.59-5.33-7.89-6.26-12.92l22.8-3.59c.99,3.43,2.65,6.01,5,7.74,2.35,1.74,5.61,2.6,9.78,2.6,3.42,0,6.12-.6,8.09-1.79,1.97-1.2,2.96-2.78,2.96-4.75,0-1.83-.79-3.3-2.36-4.4-1.57-1.1-4-1.98-7.28-2.64l-13.72-2.67c-7.79-1.5-13.62-4.14-17.49-7.92-3.87-3.78-5.81-8.69-5.81-14.75,0-5.25,1.42-9.74,4.26-13.44,2.84-3.71,6.85-6.56,12.03-8.55,5.18-1.99,11.3-2.99,18.33-2.99,6.57,0,12.28.88,17.14,2.64,4.86,1.76,8.77,4.27,11.75,7.53,2.98,3.26,4.91,7.14,5.81,11.65l-21.68,3.45c-.7-2.63-2.15-4.68-4.33-6.16-2.18-1.48-4.94-2.22-8.27-2.22-2.96,0-5.45.6-7.5,1.79s-3.06,2.8-3.06,4.82c0,1.6.63,2.99,1.9,4.19,1.27,1.2,3.59,2.12,6.97,2.78l15.06,2.82c7.79,1.5,13.59,3.99,17.42,7.46s5.74,8.07,5.74,13.79c0,5.4-1.58,10.09-4.75,14.08-3.17,3.99-7.52,7.07-13.06,9.25-5.54,2.18-11.89,3.27-19.07,3.27Z"/><path class="cls-3" d="M549.67,164.28c-6.71,0-12.73-.96-17.89-2.87-5.17-1.9-9.45-4.7-12.7-8.3-3.25-3.61-5.38-7.99-6.32-13.04l-.05-.25,23.28-3.66.06.21c.97,3.36,2.62,5.92,4.91,7.61,2.29,1.7,5.53,2.55,9.63,2.55,3.36,0,6.04-.59,7.96-1.76,1.91-1.16,2.84-2.64,2.84-4.54,0-1.76-.74-3.13-2.25-4.19-1.54-1.08-3.96-1.95-7.19-2.6l-13.72-2.67c-7.8-1.5-13.73-4.19-17.62-7.98-3.9-3.81-5.88-8.83-5.88-14.92,0-5.29,1.45-9.86,4.31-13.59,2.85-3.73,6.94-6.63,12.14-8.63,5.19-2,11.39-3.01,18.42-3.01,6.57,0,12.36.89,17.22,2.65,4.87,1.77,8.86,4.32,11.85,7.6,3,3.28,4.97,7.24,5.87,11.77l.05.25-22.16,3.52-.06-.22c-.68-2.55-2.11-4.58-4.23-6.02-2.13-1.44-4.86-2.17-8.13-2.17-2.9,0-5.38.59-7.37,1.76-1.98,1.16-2.94,2.66-2.94,4.6,0,1.52.61,2.86,1.82,4.01,1.23,1.16,3.53,2.07,6.84,2.72l15.06,2.82c7.8,1.5,13.7,4.03,17.54,7.52,3.86,3.51,5.82,8.21,5.82,13.98,0,5.43-1.62,10.22-4.81,14.23-3.18,4-7.61,7.14-13.16,9.33-5.54,2.18-11.99,3.29-19.17,3.29ZM513.3,140.23c.95,4.85,3.02,9.06,6.16,12.54,3.2,3.54,7.4,6.29,12.5,8.17,5.11,1.88,11.07,2.83,17.72,2.83,7.11,0,13.5-1.1,18.98-3.25,5.47-2.16,9.83-5.24,12.95-9.18,3.12-3.92,4.7-8.61,4.7-13.92,0-5.62-1.9-10.2-5.65-13.61-3.77-3.42-9.59-5.91-17.3-7.4l-15.06-2.82c-3.41-.66-5.8-1.62-7.09-2.84-1.31-1.24-1.98-2.71-1.98-4.37,0-2.1,1.07-3.8,3.19-5.04,2.07-1.21,4.64-1.83,7.62-1.83,3.37,0,6.2.76,8.41,2.26,2.16,1.47,3.63,3.51,4.37,6.08l21.2-3.37c-.9-4.33-2.82-8.12-5.69-11.27-2.94-3.22-6.86-5.73-11.65-7.46-4.81-1.74-10.54-2.62-17.05-2.62-6.97,0-13.11,1-18.24,2.97-5.12,1.97-9.13,4.82-11.93,8.47-2.79,3.64-4.21,8.12-4.21,13.29,0,5.96,1.93,10.86,5.73,14.57,3.82,3.72,9.66,6.37,17.36,7.85l13.73,2.67c3.3.66,5.79,1.56,7.38,2.68,1.63,1.15,2.46,2.7,2.46,4.6,0,2.05-1.03,3.72-3.08,4.96-2,1.21-4.77,1.83-8.22,1.83-4.21,0-7.55-.89-9.93-2.65-2.33-1.72-4.02-4.3-5.03-7.66l-22.33,3.52Z"/><path class="cls-3" d="M640.29,83.86v18.23h-49.13v-18.23h49.13ZM601.59,65.14h24.56v73.34c0,2.07.49,3.6,1.48,4.61.98,1.01,2.58,1.51,4.79,1.51.84,0,2.03-.09,3.55-.28,1.52-.19,2.62-.38,3.27-.56l3.17,17.88c-2.77.8-5.44,1.34-8.02,1.62-2.58.28-5.02.42-7.32.42-8.35,0-14.69-1.96-19-5.88-4.32-3.92-6.47-9.63-6.47-17.14v-75.52Z"/><path class="cls-3" d="M627.06,163.92c-8.38,0-14.83-2-19.17-5.94-4.35-3.95-6.56-9.78-6.56-17.32v-38.32h-10.42v-18.73h10.42v-18.72h25.06v18.72h14.15v18.73h-14.15v36.14c0,1.99.47,3.48,1.41,4.44.93.95,2.48,1.44,4.61,1.44.84,0,2.02-.09,3.52-.28,1.5-.18,2.59-.37,3.23-.56l.27-.08.05.27,3.21,18.1-.22.06c-2.76.8-5.48,1.34-8.07,1.63-2.58.28-5.05.42-7.35.42ZM601.84,102.34v38.32c0,7.4,2.15,13.1,6.39,16.95,4.25,3.86,10.58,5.81,18.83,5.81,2.28,0,4.73-.14,7.29-.42,2.49-.27,5.11-.79,7.77-1.55l-3.08-17.39c-.68.17-1.7.34-3.04.5-1.52.19-2.73.28-3.58.28-2.27,0-3.94-.53-4.96-1.59-1.03-1.05-1.55-2.66-1.55-4.78v-36.14h-24.06ZM626.4,101.84h13.65v-17.73h-13.65v17.73ZM601.84,101.84h24.06v-17.73h-24.06v17.73ZM591.42,101.84h9.92v-17.73h-9.92v17.73ZM601.84,83.61h24.06v-18.22h-24.06v18.22Z"/><path class="cls-3" d="M686.51,164.03c-8.21,0-15.3-1.63-21.25-4.89-5.96-3.26-10.52-7.92-13.69-13.97s-4.75-13.28-4.75-21.68,1.58-15.15,4.75-21.25c3.17-6.1,7.66-10.85,13.48-14.25,5.82-3.4,12.67-5.1,20.55-5.1,5.54,0,10.62.87,15.24,2.6,4.62,1.74,8.63,4.3,12.04,7.71,3.4,3.4,6.03,7.59,7.88,12.56,1.85,4.97,2.78,10.72,2.78,17.24v6.19h-67.99v-14.29h56.3l-11.47,3.38c0-3.66-.55-6.8-1.65-9.43-1.1-2.63-2.73-4.65-4.89-6.05-2.16-1.41-4.83-2.11-8.02-2.11s-5.89.72-8.09,2.15c-2.21,1.43-3.88,3.43-5.03,5.98-1.15,2.56-1.72,5.55-1.72,8.97v10.28c0,4.04.67,7.4,2.01,10.1,1.34,2.7,3.2,4.72,5.6,6.05s5.18,2.01,8.38,2.01c2.21,0,4.21-.3,6.02-.92,1.81-.61,3.35-1.52,4.65-2.75,1.29-1.22,2.26-2.7,2.92-4.43l21.89,3.59c-1.31,4.5-3.58,8.43-6.79,11.79-3.21,3.36-7.27,5.95-12.18,7.78-4.9,1.83-10.55,2.74-16.93,2.74Z"/><path class="cls-3" d="M686.51,164.28c-8.22,0-15.41-1.66-21.38-4.92-5.97-3.27-10.62-8-13.79-14.07-3.17-6.06-4.78-13.39-4.78-21.79s1.61-15.26,4.78-21.37c3.17-6.11,7.74-10.94,13.57-14.35,5.83-3.41,12.79-5.14,20.68-5.14,5.54,0,10.69.88,15.33,2.62,4.63,1.74,8.71,4.35,12.12,7.76,3.41,3.41,6.08,7.67,7.94,12.65,1.85,4.98,2.79,10.81,2.79,17.33v6.44h-52.55c.14,3.38.79,6.27,1.95,8.61,1.31,2.64,3.16,4.64,5.49,5.95,2.34,1.31,5.12,1.97,8.25,1.97,2.17,0,4.17-.3,5.94-.9,1.76-.6,3.3-1.5,4.55-2.69,1.25-1.19,2.22-2.65,2.86-4.34l.07-.19,22.37,3.67-.08.27c-1.32,4.52-3.62,8.52-6.85,11.89-3.22,3.37-7.35,6-12.27,7.84-4.91,1.83-10.63,2.76-17.01,2.76ZM685.59,83.13c-7.8,0-14.67,1.71-20.43,5.07-5.75,3.36-10.25,8.12-13.38,14.15-3.13,6.04-4.72,13.15-4.72,21.14s1.59,15.57,4.72,21.56c3.13,5.98,7.7,10.65,13.59,13.87,5.89,3.22,13,4.86,21.13,4.86,6.32,0,11.99-.92,16.84-2.73,4.85-1.81,8.91-4.41,12.08-7.72,3.11-3.24,5.34-7.08,6.65-11.42l-21.41-3.51c-.67,1.68-1.65,3.14-2.91,4.34-1.31,1.24-2.91,2.18-4.74,2.8-1.82.62-3.88.93-6.1.93-3.22,0-6.08-.69-8.5-2.04-2.43-1.36-4.34-3.43-5.7-6.16-1.19-2.41-1.87-5.37-2-8.83h-15.44v-14.79h15.59c.25-2.19.78-4.18,1.57-5.94,1.16-2.59,2.89-4.64,5.12-6.09,2.24-1.45,5-2.19,8.23-2.19s5.97.72,8.16,2.15c2.19,1.43,3.87,3.5,4.99,6.17.73,1.74,1.22,3.71,1.47,5.9h13.16l-13.46,3.96v-.33c0-1.09-.05-2.13-.15-3.13h-28.65c-.08.85-.12,1.73-.12,2.64v10.28c0,.3,0,.59.01.88h52.06v-5.94c0-6.46-.93-12.23-2.76-17.16-1.83-4.92-4.47-9.11-7.83-12.47-3.36-3.36-7.38-5.93-11.95-7.65-4.58-1.72-9.67-2.59-15.15-2.59ZM655.79,128.94h14.92c0-.29-.01-.58-.01-.88v-10.28c0-.91.04-1.79.12-2.64h-15.04v13.79ZM700.47,115.15c.09.9.14,1.83.14,2.79l9.49-2.79h-9.63ZM671.38,114.65h28.54c-.25-2.12-.73-4.03-1.43-5.71-1.08-2.57-2.69-4.57-4.8-5.94-2.11-1.37-4.76-2.07-7.89-2.07s-5.8.71-7.96,2.11c-2.15,1.4-3.82,3.37-4.94,5.88-.77,1.7-1.28,3.62-1.52,5.74Z"/><path class="cls-3" d="M747.95,164.03c-3.75,0-6.91-1.26-9.47-3.76-2.56-2.51-3.84-5.64-3.84-9.4s1.28-6.81,3.84-9.33c2.56-2.51,5.71-3.76,9.47-3.76s6.91,1.25,9.47,3.76c2.56,2.51,3.83,5.62,3.83,9.33s-1.28,6.89-3.83,9.4c-2.56,2.51-5.71,3.76-9.47,3.76Z"/><path class="cls-3" d="M747.95,164.28c-3.8,0-7.05-1.29-9.64-3.84-2.6-2.55-3.91-5.77-3.91-9.57s1.32-6.96,3.91-9.5c2.59-2.55,5.84-3.84,9.64-3.84s7.05,1.29,9.64,3.84c2.59,2.55,3.91,5.75,3.91,9.5s-1.32,7.03-3.91,9.57c-2.6,2.55-5.84,3.84-9.64,3.84ZM747.95,138.03c-3.67,0-6.79,1.24-9.29,3.69-2.5,2.45-3.76,5.53-3.76,9.15s1.27,6.77,3.76,9.22c2.5,2.45,5.62,3.69,9.29,3.69s6.79-1.24,9.29-3.69c2.5-2.45,3.76-5.55,3.76-9.22s-1.26-6.7-3.76-9.15c-2.5-2.45-5.62-3.69-9.29-3.69Z"/><path class="cls-3" d="M777.56,162.55v-78.69h22.59l1.41,20.41h-1.69c1.22-5.11,3.04-9.24,5.46-12.39,2.42-3.14,5.23-5.44,8.45-6.9,3.21-1.45,6.6-2.18,10.17-2.18,5.63,0,10.17,1.81,13.62,5.42,3.45,3.61,6.11,9.53,7.99,17.74h-2.75c1.27-5.49,3.26-9.95,5.98-13.37,2.72-3.42,5.91-5.91,9.57-7.46,3.66-1.55,7.46-2.32,11.4-2.32,4.93,0,9.28,1.07,13.06,3.2,3.78,2.14,6.74,5.19,8.9,9.15,2.16,3.97,3.24,8.74,3.24,14.32v53.07h-24.49v-47.51c0-3.99-1.04-7.01-3.13-9.08-2.09-2.06-4.75-3.1-7.99-3.1-2.3,0-4.31.52-6.02,1.55-1.71,1.03-3.02,2.47-3.91,4.33-.89,1.85-1.34,4.05-1.34,6.58v47.23h-23.58v-47.86c0-3.61-1.01-6.49-3.03-8.62-2.02-2.13-4.67-3.2-7.95-3.2-2.25,0-4.24.52-5.95,1.55-1.71,1.03-3.05,2.5-4.01,4.4-.96,1.9-1.44,4.23-1.44,7v46.73h-24.56Z"/><path class="cls-3" d="M895.21,162.8h-24.99v-47.76c0-3.9-1.03-6.89-3.06-8.9-2.03-2.01-4.66-3.02-7.81-3.02-2.24,0-4.22.51-5.89,1.51-1.66,1-2.95,2.42-3.81,4.22-.87,1.81-1.31,3.99-1.31,6.47v47.48h-24.08v-48.11c0-3.53-1-6.37-2.96-8.45-1.96-2.07-4.58-3.12-7.77-3.12-2.2,0-4.15.51-5.82,1.51-1.67,1-2.98,2.45-3.92,4.3-.94,1.85-1.42,4.17-1.42,6.89v46.98h-25.06v-79.19h23.08l1.03,14.86c1.03-2.6,2.27-4.85,3.72-6.74,2.43-3.16,5.3-5.51,8.54-6.97,3.23-1.46,6.69-2.2,10.27-2.2,5.67,0,10.32,1.85,13.8,5.5,2.61,2.74,4.8,6.83,6.52,12.2,1.15-3.02,2.6-5.64,4.33-7.82,2.73-3.44,5.99-5.98,9.67-7.54,3.67-1.55,7.54-2.34,11.5-2.34,4.95,0,9.38,1.09,13.18,3.23,3.8,2.15,6.83,5.26,9,9.25,2.17,3.99,3.27,8.85,3.27,14.44v53.32ZM870.71,162.3h23.99v-52.82c0-5.51-1.08-10.29-3.21-14.2-2.13-3.9-5.09-6.95-8.81-9.05-3.72-2.1-8.07-3.17-12.93-3.17-3.89,0-7.69.77-11.3,2.3-3.6,1.52-6.79,4.01-9.47,7.39-1.81,2.28-3.31,5.06-4.48,8.29.47,1.53.9,3.15,1.29,4.87l.07.31h-3.37l.07-.31c.4-1.72.87-3.35,1.42-4.88-1.73-5.6-3.94-9.84-6.6-12.62-3.38-3.55-7.9-5.34-13.44-5.34-3.51,0-6.9.73-10.07,2.16-3.16,1.43-5.97,3.73-8.35,6.82-1.6,2.09-2.95,4.64-4.03,7.63l.33,4.85h-2.27l.07-.31c.39-1.63.84-3.17,1.36-4.62l-1.07-15.49h-22.11v78.19h24.06v-46.48c0-2.8.5-5.19,1.47-7.12.98-1.93,2.36-3.45,4.11-4.5,1.74-1.05,3.79-1.58,6.08-1.58,3.34,0,6.08,1.1,8.13,3.28,2.05,2.17,3.09,5.13,3.09,8.79v47.61h23.08v-46.98c0-2.56.46-4.81,1.36-6.69.91-1.89,2.25-3.38,4-4.43,1.74-1.05,3.81-1.58,6.15-1.58,3.29,0,6.04,1.07,8.16,3.17,2.13,2.11,3.21,5.22,3.21,9.26v47.26ZM843.12,105.71h2.12c-.31-1.35-.65-2.64-1.01-3.87-.41,1.23-.78,2.52-1.1,3.87ZM800.19,104.02h1.1l-.22-3.14c-.32,1-.62,2.05-.89,3.14Z"/><path class="cls-3" d="M941.93,164.03c-6.71,0-12.65-.95-17.81-2.85-5.16-1.9-9.36-4.65-12.6-8.23-3.24-3.59-5.33-7.89-6.26-12.92l22.8-3.59c.99,3.43,2.65,6.01,5,7.74,2.35,1.74,5.61,2.6,9.78,2.6,3.42,0,6.12-.6,8.09-1.79,1.97-1.2,2.96-2.78,2.96-4.75,0-1.83-.79-3.3-2.36-4.4s-4-1.98-7.28-2.64l-13.72-2.67c-7.79-1.5-13.62-4.14-17.49-7.92-3.87-3.78-5.81-8.69-5.81-14.75,0-5.25,1.42-9.74,4.26-13.44,2.84-3.71,6.85-6.56,12.03-8.55,5.18-1.99,11.3-2.99,18.33-2.99,6.57,0,12.28.88,17.14,2.64,4.86,1.76,8.77,4.27,11.75,7.53,2.98,3.26,4.92,7.14,5.81,11.65l-21.68,3.45c-.7-2.63-2.15-4.68-4.33-6.16-2.18-1.48-4.94-2.22-8.27-2.22-2.96,0-5.45.6-7.5,1.79s-3.06,2.8-3.06,4.82c0,1.6.63,2.99,1.9,4.19,1.27,1.2,3.59,2.12,6.97,2.78l15.06,2.82c7.79,1.5,13.59,3.99,17.42,7.46,3.82,3.47,5.74,8.07,5.74,13.79,0,5.4-1.58,10.09-4.75,14.08-3.17,3.99-7.52,7.07-13.05,9.25-5.54,2.18-11.89,3.27-19.07,3.27Z"/><path class="cls-3" d="M941.93,164.28c-6.71,0-12.73-.96-17.89-2.87-5.17-1.9-9.45-4.7-12.7-8.3-3.25-3.61-5.38-8-6.33-13.04l-.05-.25,23.28-3.66.06.21c.97,3.36,2.62,5.92,4.91,7.61,2.29,1.7,5.53,2.55,9.63,2.55,3.36,0,6.04-.59,7.96-1.76,1.91-1.16,2.83-2.64,2.83-4.54,0-1.76-.74-3.13-2.25-4.19-1.54-1.08-3.96-1.95-7.19-2.6l-13.72-2.67c-7.8-1.5-13.73-4.19-17.62-7.98-3.9-3.81-5.88-8.83-5.88-14.92,0-5.29,1.45-9.86,4.31-13.59,2.85-3.73,6.94-6.63,12.14-8.63,5.19-2,11.39-3.01,18.42-3.01,6.57,0,12.36.89,17.22,2.65,4.87,1.77,8.86,4.32,11.85,7.6,3,3.28,4.97,7.24,5.87,11.77l.05.25-22.16,3.52-.06-.22c-.69-2.56-2.11-4.58-4.23-6.02-2.13-1.44-4.86-2.17-8.13-2.17-2.9,0-5.38.59-7.37,1.76-1.98,1.16-2.94,2.66-2.94,4.6,0,1.52.61,2.86,1.82,4.01,1.23,1.16,3.53,2.07,6.84,2.72l15.06,2.82c7.8,1.5,13.7,4.03,17.54,7.52,3.86,3.51,5.82,8.21,5.82,13.98,0,5.43-1.62,10.22-4.81,14.23-3.18,4-7.6,7.14-13.16,9.33-5.54,2.18-11.99,3.29-19.17,3.29ZM905.55,140.23c.95,4.84,3.02,9.06,6.16,12.54,3.2,3.54,7.4,6.29,12.5,8.17,5.11,1.88,11.07,2.83,17.72,2.83,7.11,0,13.5-1.1,18.98-3.25,5.47-2.16,9.83-5.24,12.95-9.18,3.12-3.92,4.7-8.61,4.7-13.92,0-5.62-1.9-10.2-5.65-13.61-3.77-3.42-9.59-5.91-17.3-7.4l-15.06-2.82c-3.41-.66-5.8-1.62-7.09-2.84-1.31-1.24-1.98-2.71-1.98-4.37,0-2.1,1.07-3.8,3.19-5.04,2.07-1.21,4.63-1.83,7.62-1.83,3.37,0,6.2.76,8.41,2.26,2.16,1.46,3.63,3.51,4.37,6.08l21.2-3.37c-.9-4.33-2.82-8.12-5.69-11.27-2.94-3.21-6.86-5.73-11.65-7.46-4.81-1.74-10.54-2.62-17.05-2.62-6.97,0-13.11,1-18.25,2.97-5.12,1.97-9.13,4.82-11.93,8.47-2.79,3.64-4.21,8.12-4.21,13.29,0,5.96,1.93,10.86,5.73,14.57,3.82,3.72,9.66,6.37,17.36,7.85l13.72,2.67c3.3.66,5.79,1.56,7.38,2.68,1.63,1.15,2.46,2.7,2.46,4.6,0,2.05-1.04,3.73-3.08,4.96-2,1.21-4.77,1.83-8.22,1.83-4.21,0-7.55-.89-9.93-2.65-2.33-1.72-4.02-4.3-5.03-7.66l-22.33,3.52Z"/><path class="cls-13" d="M38.72,2.58S6.72,21.5,5.62,27.04s21.69,56.56,27.59,57.96c5.9,1.4,52.44-24.24,54.21-26.6s-5.87-35.51-9.73-37.48c-3.86-1.97-33.72-17.48-38.96-18.34Z"/><g class="cls-12"><path class="cls-7" d="M77.68,20.93c-.11,8.65-10.78,24.63-15.94,29.62s-28.54,34.45-28.54,34.45l34.87,4.52,40.96-31.47-31.36-37.12"/></g><path class="cls-1" d="M25.45,83.78c-3.3.43-7.11,9.24-7.28,12.24s3.87,26.78,6.91,29.25c3.04,2.47,17.49,6.85,20.63,6.1,3.14-.76,28.8-20.93,26.61-26.61-2.06-5.36-10.49-10.86-16.24-13.27-4.04-1.69-23.92-8.57-30.63-7.71Z"/><g class="cls-5"><path class="cls-9" d="M30.31,118.02c7.41-2.01,19.46-2.56,28.8-4.37,9.33-1.81,26.64-14.63,31.3-19.41,4.66-4.78,7.26,2.01,7.26,2.01l1.02,29.03-17.36,8-57.29-1.5,6.26-13.76"/><polygon class="cls-4" points="11.6 72.27 -1.46 83.82 21.17 136.99 30.21 118.11 11.6 72.27"/></g><path class="cls-2" d="M55.65,136.1c8.89,7.62,6.23,12.27,3.4,17-2.83,4.73-14.07,20.47-22.46,17.2-6.64-2.59-12.72-12.97-12.59-19.48.08-4.22,11.64-20.61,19.48-19.77,5.25.56,7.36.93,12.17,5.05Z"/><g class="cls-6"><path class="cls-11" d="M24,162.45s10.27,3.37,22.6-1.5c12.34-4.87,17.98-14.25,17.98-14.25l-2.83,15.24-2.66,20.48-30.97-1-4.12-18.99Z"/></g></svg>