<?xml version="1.0" encoding="UTF-8"?><svg id="Layer_1" xmlns="http://www.w3.org/2000/svg" viewBox="0 0 256 258"><defs><style>.cls-1{fill:#ff807d;}</style></defs><rect class="cls-1" x="2.5" y="199" width="252" height="59" rx="29.5" ry="29.5"/><path d="M177.38,98.58c-18.92,0-34.31-15.39-34.31-34.31s15.39-34.31,34.31-34.31,34.31,15.39,34.31,34.31-15.39,34.31-34.31,34.31ZM177.38,47.95c-9,0-16.31,7.32-16.31,16.31s7.32,16.31,16.31,16.31,16.31-7.32,16.31-16.31-7.32-16.31-16.31-16.31Z"/><circle cx="108.47" cy="54.15" r="18.11"/><circle cx="139.13" cy="15.25" r="11.88"/><path d="M142.79,237.5H60.07c-9.24,0-17.49-5.51-21.02-14.04s-1.6-18.26,4.93-24.79l28.56-28.56c.89-.89,1.39-2.11,1.39-3.36l-.11-43.32c0-.81-.16-1.54-.46-2.06-.31-.54-.78-1.37-3.21-1.37,0,0-.02,0-.03,0-4.96,0-8.99-4.02-9-8.99,0-4.97,4.02-9.01,8.99-9.01h.04c8.32,0,15.01,3.71,18.85,10.46,1.84,3.23,2.82,7.01,2.82,10.94l.11,43.31c0,6.01-2.42,11.89-6.66,16.13l-28.56,28.56c-2.03,2.03-1.4,4.3-1.03,5.18s1.52,2.93,4.39,2.93h82.72c2.87,0,4.02-2.05,4.39-2.93s1-3.15-1.03-5.18l-28.3-28.3c-4.29-4.29-6.65-9.99-6.66-16.05l-.11-43.66c0-3.94.96-7.72,2.79-10.96,3.83-6.77,10.53-10.5,18.86-10.51h.01c4.96,0,8.99,4.02,9,8.99,0,4.97-4.02,9.01-8.99,9.01-2.45,0-2.92.83-3.23,1.38-.29.52-.45,1.25-.45,2.05l.11,43.66c0,1.28.5,2.47,1.39,3.36l28.3,28.3c6.53,6.53,8.47,16.26,4.93,24.79s-11.79,14.04-21.02,14.04Z"/></svg>