<svg xmlns="http://www.w3.org/2000/svg" viewBox="0 0 256 258"><rect width="252" height="59" x="1.8" y="199" rx="29.5" ry="29.5" style="fill:#ff807d"/><path d="M127.36 237.25c-5.5 0-10.99-2.09-15.16-6.26l-51.67-51.7a60.56 60.56 0 0 1-24.19-50.23c.46-15.59 6.9-30.25 18.13-41.29s26-17.22 41.6-17.41c11.36-.15 22.18 5.93 31.74 11.66 9.56-5.73 20.43-11.84 31.74-11.66 15.59.19 30.37 6.37 41.6 17.41 11.24 11.04 17.68 25.7 18.13 41.29.58 19.7-8.46 38.43-24.21 50.24l-52.68 51.81c-4.15 4.09-9.59 6.13-15.02 6.13Zm-54.33-70.91 51.9 51.93a3.44 3.44 0 0 0 4.83.02l52.83-51.97c.38-.4.79-.77 1.25-1.1a42.59 42.59 0 0 0 17.44-35.62c-.66-22.46-19.48-40.95-41.96-41.23-9.53-.12-18.53 5.98-26.1 11.69a9 9 0 0 1-10.84 0c-7.57-5.71-16.61-11.8-26.1-11.69-22.48.28-41.3 18.77-41.96 41.23a42.59 42.59 0 0 0 17.44 35.62c.46.34.89.72 1.27 1.13Z"/></svg>