<?xml version="1.0" encoding="UTF-8"?><svg id="Layer_1" xmlns="http://www.w3.org/2000/svg" viewBox="0 0 256 256"><defs><style>.cls-1{fill:#ff807d;}</style></defs><rect class="cls-1" x="2.49" y="196.32" width="252" height="59" rx="29.5" ry="29.5"/><rect x="53.89" y="121.55" width="19.07" height="19.07"/><rect x="63.42" y="147.45" width="28.38" height="28.38"/><rect x="81.41" y="104.05" width="36.57" height="36.57"/><path d="M86.26,207.52c-13.14,0-26.04-3.7-37.42-10.89-15.88-10.03-26.91-25.65-31.04-43.97h0c-4.14-18.32-.89-37.16,9.14-53.04s25.65-26.91,43.97-31.04c18.32-4.14,37.16-.89,53.04,9.14,15.88,10.03,26.91,25.65,31.04,43.97,4.14,18.32.89,37.16-9.14,53.04s-25.65,26.91-43.97,31.04c-5.19,1.17-10.43,1.75-15.63,1.75ZM86.5,84.83c-3.87,0-7.76.43-11.63,1.3-13.63,3.08-25.25,11.28-32.71,23.1s-9.88,25.83-6.8,39.46c3.08,13.63,11.28,25.25,23.1,32.71,11.82,7.46,25.83,9.88,39.46,6.8,13.63-3.08,25.25-11.28,32.71-23.1s9.88-25.83,6.8-39.46c-3.08-13.63-11.28-25.25-23.1-32.71-8.47-5.35-18.06-8.1-27.84-8.1Z"/><path d="M164.7,194.79c-1.64,0-3.31-.45-4.8-1.39l-26.31-16.61c-4.2-2.65-5.46-8.21-2.8-12.42,2.65-4.2,8.21-5.46,12.42-2.8l26.31,16.61c4.2,2.65,5.46,8.21,2.8,12.42-1.71,2.71-4.63,4.19-7.62,4.19Z"/><path d="M218.05,244.61c-3.26,0-6.45-.92-9.27-2.7l-47.08-29.74c-3.94-2.49-6.67-6.36-7.69-10.9-1.03-4.54-.22-9.21,2.26-13.14l5.42-8.58c5.13-8.12,15.92-10.56,24.04-5.43l47.08,29.74c3.94,2.49,6.67,6.36,7.69,10.9,1.03,4.54.22,9.21-2.26,13.14l-5.42,8.58c-2.49,3.94-6.36,6.67-10.9,7.69-1.29.29-2.58.43-3.87.43ZM171.79,197.26l46.11,29.12,4.81-7.61-46.11-29.12-4.81,7.61Z"/></svg>