<?xml version="1.0" encoding="UTF-8"?><svg xmlns="http://www.w3.org/2000/svg" viewBox="0 0 267 20"><defs><style>.cls-1{isolation:isolate;}.cls-2{mix-blend-mode:hard-light;}.cls-3{fill:#fff;}</style></defs><g class="cls-1"><g id="Layer_1"><g class="cls-2"><path class="cls-3" d="M63.94,15.12l.99-1.2c.63.66,1.39,1.18,2.22,1.53s1.73.53,2.63.52c1.9,0,3.15-1.03,3.15-2.46v-.04c0-1.34-.71-2.11-3.67-2.75-3.25-.73-4.75-1.8-4.75-4.18v-.04c0-2.28,1.96-3.95,4.64-3.95,1.81-.05,3.58.58,4.97,1.78l-.93,1.26c-1.13-1.01-2.58-1.57-4.08-1.57-1.84,0-3.01,1.03-3.01,2.34v.04c0,1.37.73,2.13,3.84,2.82,3.11.68,4.61,1.88,4.61,4.09v.04c0,2.48-2.02,4.1-4.83,4.1-2.15.02-4.22-.81-5.78-2.32Z"/></g><g class="cls-2"><path class="cls-3" d="M76.97,10.03v-.04c-.03-.98.14-1.95.49-2.86.35-.91.87-1.74,1.54-2.44.67-.7,1.46-1.25,2.34-1.63.88-.38,1.82-.57,2.78-.57,1.02-.03,2.04.16,2.99.55s1.81.99,2.52,1.74l-1.08,1.2c-.57-.62-1.26-1.12-2.02-1.46-.76-.34-1.59-.52-2.42-.53-3.14,0-5.48,2.61-5.48,5.94v.04c0,3.33,2.36,5.98,5.48,5.98,1.94,0,3.21-.76,4.56-2.09l1.05,1.06c-.71.82-1.58,1.47-2.56,1.91-.98.44-2.04.66-3.1.63-4.1,0-7.1-3.28-7.1-7.44Z"/></g><g class="cls-2"><path class="cls-3" d="M92.71,2.75h1.59v6.45h8.16V2.75h1.59v14.48h-1.59v-6.52h-8.16v6.52h-1.59V2.75Z"/></g><g class="cls-2"><path class="cls-3" d="M108.66,2.75h1.63l5.15,7.9,5.15-7.9h1.63v14.48h-1.63V5.5l-5.15,7.78h-.08l-5.15-7.74v11.71h-1.56V2.75Z"/></g><g class="cls-2"><path class="cls-3" d="M127.35,2.75h1.59v14.48h-1.59V2.75Z"/></g><g class="cls-2"><path class="cls-3" d="M134.09,2.75h4.91c4.45,0,7.52,3.12,7.52,7.22v.04c0,4.08-3.07,7.22-7.52,7.22h-4.91V2.75ZM139,15.72c3.57,0,5.86-2.48,5.86-5.69v-.04c0-3.21-2.28-5.73-5.86-5.73h-3.31v11.46h3.31Z"/></g><g class="cls-2"><path class="cls-3" d="M152.79,4.26h-4.75v-1.51h11.12v1.51h-4.75v12.97h-1.63V4.26Z"/></g><g class="cls-2"><path class="cls-3" d="M167.06,2.75h11.31v3.52h-7.39v2.46h6.68v3.33h-6.68v5.17h-3.92V2.75Z"/></g><g class="cls-2"><path class="cls-3" d="M180.57,10.87V2.75h3.98v8.04c0,2.09,1.03,3.08,2.6,3.08s2.61-.95,2.61-2.98V2.75h3.98v8.03c0,4.67-2.61,6.72-6.63,6.72s-6.55-2.09-6.55-6.63Z"/></g><g class="cls-2"><path class="cls-3" d="M200.12,6.27h-4.24v-3.52h12.4v3.52h-4.25v10.97h-3.92V6.27Z"/></g><g class="cls-2"><path class="cls-3" d="M210.42,10.87V2.75h3.98v8.04c0,2.09,1.03,3.08,2.6,3.08s2.6-.95,2.6-2.98V2.75h3.98v8.03c0,4.67-2.6,6.72-6.63,6.72s-6.54-2.09-6.54-6.63Z"/></g><g class="cls-2"><path class="cls-3" d="M226.12,2.75h6.69c2.17,0,3.66.56,4.61,1.57.43.44.76.97.97,1.55.22.58.31,1.2.28,1.82v.04c.03.96-.24,1.91-.76,2.7-.52.8-1.28,1.41-2.16,1.74l3.37,5.05h-4.52l-2.85-4.39h-1.71v4.39h-3.92V2.75ZM232.63,9.7c1.33,0,2.1-.66,2.1-1.72v-.04c0-1.14-.81-1.72-2.12-1.72h-2.57v3.48h2.58Z"/></g><g class="cls-2"><path class="cls-3" d="M241.25,2.75h11.39v3.41h-7.51v2.22h6.8v3.17h-6.8v2.29h7.59v3.42h-11.47V2.75Z"/></g><g class="cls-2"><path class="cls-3" d="M254.64,15.08l2.17-2.67c1.29,1.1,2.91,1.72,4.58,1.74,1.05,0,1.63-.37,1.63-.99v-.04c0-.6-.47-.93-2.38-1.39-3.01-.71-5.34-1.57-5.34-4.55v-.04c0-2.69,2.08-4.63,5.48-4.63,2.1-.08,4.16.6,5.82,1.92l-1.96,2.84c-1.15-.88-2.53-1.37-3.96-1.43-.95,0-1.42.41-1.42.93v.04c0,.66.49.95,2.45,1.41,3.25.72,5.27,1.8,5.27,4.51v.04c0,2.96-2.28,4.72-5.72,4.72-2.42.06-4.78-.8-6.62-2.4Z"/></g><path class="cls-3" d="M13.24,3.83H0V0h14.59l-1.35,3.83Z"/><path class="cls-3" d="M14.6,20H.01v-3.83h13.23l1.36,3.83Z"/><path class="cls-3" d="M59.66,10c-5.83,2.22-13.06,5.99-17.54,10l3.53-10-3.53-10c4.48,4.01,11.72,7.78,17.54,10Z"/><path class="cls-3" d="M33.65,19.32l3.29-9.32-3.29-9.32h5.57l3.29,9.32-3.29,9.32h-5.57Z"/><path class="cls-3" d="M38.75,1.37l3.05,8.63-3.05,8.64h-4.15l2.89-8.17.16-.46-.16-.47-2.89-8.17h4.15ZM39.69.01h-6.99l3.53,10-3.53,10h6.99l3.53-10L39.69.01Z"/><path class="cls-3" d="M17.17,19.32l-3.29-9.32L17.17.68h12.7l3.29,9.32-3.29,9.32h-12.7Z"/><path class="cls-3" d="M29.41,1.37l3.05,8.63-3.05,8.64h-11.77l-3.05-8.63,3.05-8.63h11.77ZM30.34.01h-13.64l-3.53,10,3.53,10h13.64l3.53-10L30.34.01Z"/><path class="cls-3" d="M11.73,11.91H.01v-3.83h11.72l-.67,1.91.67,1.92Z"/></g></g></svg>