<?xml version="1.0" encoding="UTF-8"?><svg id="Layer_1" xmlns="http://www.w3.org/2000/svg" viewBox="0 0 101 52"><defs><style>.cls-1{fill:#fff;}</style></defs><path class="cls-1" d="M90.44,27.88h-.39v6.73h-4.83v-16.75l4.83-7.55v15.63c.96-1.18,4.2-5.65,4.2-5.65h5.96l-5.65,5.98,5.85,8.35h-6.1l-3.87-6.74ZM76.98,26.78l1.98-6.45h4.78l-5.61,14.23c-1.67,4.28-4.06,7.17-7.63,7.17-1.37,0-2.53-.35-3.14-.7l1.92-2.97c.29.03.58.05.88.05,1.65,0,2.88-1.6,3.69-3.5l-5.88-14.28h5.41l2.12,6.37c.41,1.21.71,3.52.71,3.52,0,0,.38-2.23.77-3.44ZM62.39,26.45c0-1.86-.82-2.75-2.39-2.75-.77,0-1.57.22-2.12.55v10.35h-4.83v-14.14l4.73-.39-.11,2.31h.16c1.02-1.37,2.75-2.41,4.81-2.41,2.47,0,4.61,1.53,4.61,5.16v9.47h-4.85v-8.16ZM39.22,33.88l.44-3.29c1.51.74,3.22,1.1,4.65,1.1,1.04,0,1.73-.35,1.73-.98,0-1.81-6.51-1.37-6.51-6.1,0-3.02,2.77-4.61,6.24-4.61,1.73,0,3.51.47,4.67.88l-.47,3.24c-1.21-.47-2.86-.9-4.24-.9-.85,0-1.53.3-1.53.85,0,1.78,6.65,1.43,6.65,6.04,0,3.07-2.72,4.83-6.46,4.83-2.06,0-3.73-.35-5.16-1.04Z"/><path class="cls-1" d="M32.03,11.62c-.43-.12-.87-.24-1.34-.35.15.56.23,1.13.24,1.71v.41l-1.95,5.29c.99,9.16.51,10.4.35,10.81-.25.65-.92,1.71-2.05,3.24l1.11,10.31,4.03-2.91c.16-.12.3-.27.39-.46.09-.18.14-.38.14-.59V12.85c0-.28-.09-.55-.26-.77-.17-.22-.4-.38-.66-.46Z"/><path class="cls-1" d="M32.95,39.09c0,.2-.05.4-.14.59-.09.18-.23.34-.39.46l-4.03,2.91-1.11-10.31c1.13-1.53,1.8-2.59,2.05-3.24.16-.41.64-1.66-.35-10.81l1.95-5.29v-.41c-.01-.58-.1-1.15-.24-1.71.47.11.91.23,1.34.35.26.08.5.24.66.46.17.22.26.49.26.77v26.24Z"/><path class="cls-1" d="M13.28,12.16c2.16-.64,4.45-.64,6.61,0l.25-.42.28-1.93c-.96-.05-2.63-.11-3.81-.11-1.29,0-2.58.04-3.85.11l.28,1.94.23.42Z"/><path class="cls-1" d="M16.61,9.71c1.18,0,2.85.07,3.81.11l-.28,1.93-.25.42c-2.16-.64-4.45-.64-6.61,0l-.25-.41-.28-1.94c1.29-.07,2.58-.11,3.87-.11Z"/><path class="cls-1" d="M4.19,18.67l-1.94-5.28v-.41c.01-.58.09-1.15.24-1.71-.46.11-.91.23-1.34.35-.26.08-.5.24-.66.46-.17.22-.26.49-.26.77v26.24c0,.2.05.4.14.59.09.18.23.34.39.46l4.05,2.93,1.11-10.3c-1.13-1.55-1.82-2.62-2.07-3.28-.16-.41-.65-1.66.34-10.81Z"/><path class="cls-1" d="M4.81,43.06l-4.05-2.93c-.16-.12-.3-.27-.39-.46-.09-.18-.14-.38-.14-.59V12.85c0-.28.09-.55.26-.77.17-.22.4-.38.66-.46.42-.12.87-.24,1.34-.35-.15.56-.23,1.13-.24,1.71v.41l1.95,5.28c-.99,9.15-.51,10.4-.35,10.81.25.66.93,1.73,2.07,3.28l-1.1,10.3Z"/><path class="cls-1" d="M27.77,28.88c.32-.82.14-4.68-.49-10.33v-.09l1.98-5.38v-.11c0-2.34-3.02-8.62-4.8-11.95l-.46-.85c-.03-.05-.07-.1-.13-.12-.05-.03-.11-.03-.17-.02-.06.01-.11.04-.15.08-.04.04-.07.1-.08.16l-1.72,12.06-1.1,1.83-.28-.09c-1.22-.42-2.5-.66-3.79-.69-1.29.03-2.56.27-3.78.69l-.28.09-1.09-1.83L9.7.24c0-.06-.03-.12-.08-.16-.04-.04-.1-.07-.16-.08-.06-.01-.12,0-.17.03-.05.03-.1.07-.13.12l-.46.85c-1.78,3.34-4.8,9.61-4.8,11.95v.11l1.98,5.38v.09c-.62,5.65-.8,9.52-.49,10.33.28.73,1.41,2.3,2.35,3.55l-1.36,12.65,1.35.98,1.01.73,6.67,4.83c.34.24.74.37,1.15.37s.82-.13,1.15-.37l8.25-5.94.82-.59-1.36-12.66c.94-1.24,2.05-2.79,2.33-3.52ZM24.44,7.82l.21-1.51s.03-.09.06-.13c.03-.03.08-.06.13-.06s.1,0,.14.02c.04.02.08.06.1.1,1.09,2.3,2.15,4.81,2.26,5.96,0,.03,0,.07-.01.1l-.53,1.42s-.04.08-.07.1c-.03.03-.07.04-.12.05-.04,0-.08,0-.12-.02-.04-.02-.07-.05-.09-.08-1.31-2.08-1.83-5.05-1.95-5.89,0-.02,0-.04,0-.06h0ZM19.2,22.64c.6-.6,1.7-1.44,3.07-1.44,1.83,0,.77,1.41.42,1.83-.03.03-.06.06-.1.07-.04.02-.08.03-.12.03h-3.07c-.06,0-.11-.02-.15-.05-.05-.03-.08-.08-.1-.13-.02-.05-.03-.11-.02-.16.01-.05.04-.1.08-.14ZM20.77,25.26c.05.12.12.22.22.3.1.08.22.13.34.14.18.02.36-.02.5-.12.15-.1.25-.26.29-.43-.1,0-.2-.04-.28-.11-.08-.07-.13-.16-.14-.26,0-.07,0-.13.02-.2.02-.06.06-.12.11-.17l-.02-.02h1.23v.06c0,.22-.03.43-.11.64-.08.2-.2.39-.35.54-.15.16-.33.28-.53.36s-.41.13-.63.12c-.22,0-.43-.05-.63-.13-.2-.09-.38-.21-.52-.37-.15-.16-.26-.35-.34-.55-.07-.2-.11-.42-.1-.64v-.03h1.22c-.14.09-.25.22-.31.38-.05.16-.05.33,0,.49h0ZM10.92,21.2c1.38,0,2.46.84,3.07,1.44.04.04.07.09.08.15.01.06,0,.11-.02.16-.02.05-.06.1-.1.13-.05.03-.1.05-.16.05h-3.06s-.08,0-.12-.03c-.04-.02-.07-.04-.1-.07-.37-.42-1.42-1.83.4-1.83h0ZM11.48,24.77c-.02.1-.07.19-.15.26-.08.07-.17.1-.28.1.03.18.14.34.28.44.15.11.33.15.51.13.12-.02.22-.06.32-.13.09-.07.17-.16.22-.27.07-.16.09-.34.04-.5-.05-.17-.16-.31-.3-.4h1.18s.02,0,.02.01c0,0,.01.01.01.02.01.22-.02.43-.1.64-.07.2-.19.39-.34.55-.15.16-.33.28-.52.37-.2.09-.41.13-.63.13-.22,0-.43-.04-.63-.12-.2-.08-.38-.21-.53-.36-.15-.16-.27-.34-.35-.54-.08-.2-.11-.42-.11-.64v-.06h1.23l-.02.02s.08.1.11.16c.02.06.03.13.02.19ZM6.81,13.78s-.06.06-.09.08c-.04.02-.08.03-.12.02-.04,0-.08-.02-.12-.05s-.06-.06-.07-.1l-.53-1.42s-.02-.07-.01-.1c.11-1.14,1.16-3.67,2.26-5.96.02-.04.06-.08.1-.1.04-.02.09-.03.14-.02.05,0,.09.03.13.07.03.03.06.08.06.13l.21,1.51s0,.04,0,.07c-.13.84-.64,3.8-1.96,5.89ZM10.81,39.28c-.9-2.48-.91-5.95-.91-6.1v-.24l-.15-.19c-.39-.48-.85-1.08-1.32-1.71-.03-.04-.05-.08-.05-.13,0-.05,0-.09,0-.14s.04-.08.07-.12c.03-.03.07-.06.12-.07l2.42-.71c.05-.02.1-.04.13-.09l2.31-2.66s.09-.07.14-.09c.05-.01.11-.01.16,0,.05.02.1.05.13.1.03.05.05.1.06.16l.4,7.61c0,.06-.02.12-.05.17-.16.24-.62.96-.62,1.41,0,.57.83,1.31,1.66,1.91,0-.02.02-.05.03-.07.28-.52.66-.61.85-.21.06.29.08.6.07.9h.01v.7s0,.09-.03.13c-.15.3-.88,1.61-2.42,1.61-.68.02-2.3-.2-3.02-2.19ZM17.7,42.16s.05,0,.07.02c.02.01.03.03.04.05,0,.02,0,.05,0,.07,0,.02-.02.04-.04.06-.34.26-.76.4-1.18.4s-.84-.14-1.18-.4c-.02-.01-.03-.03-.04-.06,0-.02,0-.05,0-.07,0-.02.02-.04.04-.05.02-.01.04-.02.06-.02h2.22ZM19.76,43c-.31.58-.77,1.06-1.33,1.4-.56.34-1.2.51-1.85.51s-1.29-.18-1.85-.51c-.56-.34-1.02-.82-1.33-1.4-.02-.04-.04-.1-.03-.15,0-.05.02-.1.04-.14.03-.04.07-.08.11-.1.05-.02.1-.03.15-.03h.17c.18,0,.36-.02.53-.06.05-.01.11-.01.17,0,.05.02.1.06.13.1.22.31.5.56.84.74.33.17.7.27,1.08.27s.75-.09,1.08-.27.62-.43.84-.74c.03-.05.08-.08.13-.1.05-.02.11-.02.17,0,.18.04.37.07.57.07h.13s.1,0,.14.03c.04.02.08.06.11.1.03.04.04.09.04.14,0,.05,0,.1-.03.14h0ZM24.78,31.06c-.47.62-.93,1.22-1.32,1.71l-.15.18v.24c0,.15,0,3.62-.91,6.1-.72,1.99-2.35,2.21-3.01,2.21-1.55,0-2.26-1.3-2.42-1.61-.02-.04-.03-.08-.03-.13v-.7h.01c-.02-.3,0-.6.07-.9.17-.4.55-.3.85.21,0,.02.02.05.03.07.82-.59,1.66-1.34,1.66-1.91,0-.44-.46-1.17-.62-1.41-.03-.05-.05-.11-.05-.17l.4-7.61c0-.06.02-.11.06-.16.03-.05.08-.08.13-.1.05-.02.11-.02.16,0,.05.01.1.04.14.09l2.31,2.66s.08.07.14.09l2.42.71s.08.04.11.07c.03.03.05.07.06.11.01.04.02.08.01.13,0,.04-.02.08-.05.12Z"/></svg>