<svg xmlns="http://www.w3.org/2000/svg" id="Layer_1" viewBox="0 0 238 524"><defs><clipPath id="clippath"><path d="M35 45v140h149V37.9c0-9.66-32.8-19.5-74.5-19.5S35 28.24 35 37.9z" class="cls-12"/></clipPath><clipPath id="clippath-1"><path d="M41.05 332.39c-1.33 4.11 6.88 13.48 10.3 15.35s33.57 10.36 38.16 8.18c4.59-2.19 17.78-16.71 18.64-20.81s-8.53-45.43-16.4-46.04c-7.43-.57-18.59 6.26-24.61 11.67-4.23 3.8-23.38 23.3-26.09 31.65" class="cls-3"/></clipPath><clipPath id="clippath-2"><path d="M170.31 405.74c20.82 8.85 18.62 18.96 16.17 29.32s-13.97 45.89-31.32 44.76c-13.74-.89-30.98-16.46-34.54-28.53-2.3-7.82 9.42-44.73 24.33-47.76 9.99-2.03 14.09-2.59 25.36 2.2Z" class="cls-7"/></clipPath><style>.cls-2{fill:none}.cls-3{fill:#ff7f7a}.cls-4{fill:#dcdcf9}.cls-7{fill:#3ae668}.cls-10{fill:#70e572}.cls-12{fill:#e6e6fb}.cls-14{fill:#c75467}.cls-16{fill:#24af69}.cls-2{stroke:#b8bbe8;stroke-miterlimit:10;stroke-width:2px}</style></defs><path d="M35 45v140h149V37.9c0-9.66-32.8-19.5-74.5-19.5S35 28.24 35 37.9z" class="cls-12"/><g style="clip-path:url(#clippath)"><path d="M185 87.5c0-9.66-33.8-19.5-75.5-19.5S34 77.84 34 87.5M185 108.5c0-9.66-33.8-19.5-75.5-19.5S34 98.84 34 108.5M185 130.5c0-9.66-33.8-19.5-75.5-19.5S34 120.84 34 130.5" class="cls-2"/></g><path d="M142.74 442.39c-11.12 3.2-59.37 4.19-81.76 4.11-4.52-.02-24.18-3.8-24.58-3.85-13.36-1.8-22.7-8.56-5.74-8.9s37.38-.06 43.68-.08 89.39 2.68 68.4 8.73Z" class="cls-4"/><path d="M41.05 332.39c-1.33 4.11 6.88 13.48 10.3 15.35s33.57 10.36 38.16 8.18c4.59-2.19 17.78-16.71 18.64-20.81s-8.53-45.43-16.4-46.04c-7.43-.57-18.59 6.26-24.61 11.67-4.23 3.8-23.38 23.3-26.09 31.65" class="cls-3"/><g style="clip-path:url(#clippath-1)"><path d="M83.93 345.57c1.77-9.81 7.83-24.07 10.9-36.03s-2.33-39.4-5.35-47.53c-3.01-8.13 6.4-7.4 6.4-7.4l34.63 14.96-.28 24.81-33.65 66.38-12.66-15.19" class="cls-14"/><path d="m19.84 342.24 6.28 21.75L102 365.9l-18.07-20.33z" class="cls-14"/></g><path d="M114.88 492.54c0 .28-1.62.5-3 .5s-2-.22-2-.5 1.12-.5 2.5-.5 2.5.22 2.5.5M102.6 479.03c0 .32-2.18.58-4.03.58s-2.69-.26-2.69-.58 1.5-.58 3.36-.58 3.36.26 3.36.58M217.63 494.53c-9.4 5.64-50.23 7.37-69.17 7.23-3.82-.03-33.79-24.72-19.44-25.32 14.35-.59 25.42 2.75 30.74 2.71s75.62 4.72 57.87 15.37Z" class="cls-4"/><path d="M170.31 405.74c20.82 8.85 18.62 18.96 16.17 29.32s-13.97 45.89-31.32 44.76c-13.74-.89-30.98-16.46-34.54-28.53-2.3-7.82 9.42-44.73 24.33-47.76 9.99-2.03 14.09-2.59 25.36 2.2Z" class="cls-7"/><path d="M127.4 472.71s20.87.22 40.74-15.93 24.8-36.72 24.8-36.72l3.67 29.72 7.04 39.27-57.61 16.22-18.65-32.56Z" class="cls-16" style="clip-path:url(#clippath-2)"/><path d="m143.71 235-.54-.08c.16.04.34.06.54.08" style="fill:none"/><path d="M210.02 489.96c2.18.9 5.11.67 2.64 2.23s-5.15 2.44-6.82.77 2.47-3.7 4.18-3" class="cls-16"/><path d="M98.02 464.96c2.55 1.05 6.82 3.43 3.93 5.24s-6.01 2.85-7.96.9 2.04-6.97 4.03-6.14M108.98 490.9c.62-1.28 1.96-3.4 2.81-1.86s1.28 3.17.22 4.11-3.51-1.26-3.03-2.25M199.98 448.9c.62-1.28 1.96-3.4 2.81-1.86s1.28 3.17.22 4.11-3.51-1.26-3.03-2.25" class="cls-10"/><path d="M202.67 172.49c1.36-9.74-7.71-19.64-27.19-27.07-36.43-13.89-95.57-13.89-132 0-17.7 6.75-26.8 15.55-27.3 24.4h-.03v19.38h186.51v-16.71Z" style="fill:#dcddf9"/><path d="M43.48 214.54c36.43 14.07 95.57 14.07 132 0s36.43-36.92 0-50.99c-36.42-14.07-95.57-14.07-132 0-36.42 14.07-36.42 36.92 0 50.99" style="fill:#b8bbe8"/><path d="M66.69 204.33c23.62 6.94 61.98 6.94 85.6 0 23.62-6.93 23.62-18.2 0-25.13-23.62-6.94-61.98-6.94-85.6 0s-23.62 18.2 0 25.13" style="fill:#8484ce"/><path d="M159.21 181.63c-2.02-.85-4.33-1.67-6.92-2.43-23.62-6.94-61.98-6.94-85.6 0-2.59.76-4.9 1.57-6.92 2.43 2.02.85 4.33 1.67 6.92 2.43 23.62 6.94 61.98 6.94 85.6 0 2.59-.76 4.9-1.57 6.92-2.43" style="fill:#043668"/><path d="M132.05 198.81c-4.25 3.43-23.98 24.1-23.98 24.1l.27.06c5.42.82 41.11-14.82 42.59-16.45 1.35-1.49-1.32-22.25-3.9-27.78l-.9-1.12c-.68 6.54-9.83 17.76-14.08 21.19" style="fill:#5b58d1"/><path d="M91 174.84c-1.22 4.11 12.7 46.44 17.07 47.91s19.73-20.67 23.98-24.1 13.4-14.49 14.08-21.02C117.36 171.4 91 174.84 91 174.84" style="fill:#7774f1"/></svg>