<?xml version="1.0" encoding="UTF-8"?><svg id="Layer_1" xmlns="http://www.w3.org/2000/svg" xmlns:xlink="http://www.w3.org/1999/xlink" viewBox="0 0 48 48"><defs><style>.cls-1{fill:#ff7f7a;}.cls-2{fill:#ff9284;}.cls-3{fill:#c75467;}.cls-4{clip-path:url(#clippath);}</style><clipPath id="clippath"><path class="cls-1" d="M7.01,3.41C4.18,3.77.91,11.34.76,13.91c-.15,2.57,3.32,23,5.93,25.12,2.61,2.12,15.02,5.89,17.72,5.24s24.73-17.97,22.86-22.85c-1.77-4.6-9.01-9.33-13.95-11.39-3.47-1.45-20.55-7.36-26.3-6.62Z"/></clipPath></defs><path class="cls-1" d="M7.01,3.41C4.18,3.77.91,11.34.76,13.91c-.15,2.57,3.32,23,5.93,25.12,2.61,2.12,15.02,5.89,17.72,5.24s24.73-17.97,22.86-22.85c-1.77-4.6-9.01-9.33-13.95-11.39-3.47-1.45-20.55-7.36-26.3-6.62Z"/><g class="cls-4"><path class="cls-3" d="M11.18,32.81c6.36-1.72,16.71-2.2,24.73-3.76,8.02-1.56,22.88-12.56,26.88-16.67s6.24,1.73,6.24,1.73l.88,24.93-14.9,6.87-49.2-1.29,5.38-11.81"/><polygon class="cls-2" points="-4.89 -6.48 -16.1 3.44 3.33 49.1 11.09 32.88 -4.89 -6.48"/></g></svg>