<?xml version="1.0" encoding="UTF-8"?><svg id="Layer_1" xmlns="http://www.w3.org/2000/svg" xmlns:xlink="http://www.w3.org/1999/xlink" viewBox="0 0 48 48"><defs><style>.cls-1{fill:#5b58d1;}.cls-2{clip-path:url(#clippath);}.cls-3{fill:#7774f1;}</style><clipPath id="clippath"><path class="cls-3" d="M19.99.75S2.05,11.36,1.43,14.46s12.16,31.71,15.46,32.49,29.39-13.59,30.39-14.91-3.29-19.9-5.45-21.01S22.92,1.24,19.99.75Z"/></clipPath></defs><path class="cls-3" d="M19.99.75S2.05,11.36,1.43,14.46s12.16,31.71,15.46,32.49,29.39-13.59,30.39-14.91-3.29-19.9-5.45-21.01S22.92,1.24,19.99.75Z"/><g class="cls-2"><path class="cls-1" d="M41.83,11.04c-.06,4.85-6.04,13.8-8.93,16.61s-16,19.31-16,19.31l19.55,2.53,22.96-17.64-17.58-20.81"/></g></svg>