<?xml version="1.0" encoding="UTF-8"?><svg id="Layer_1" xmlns="http://www.w3.org/2000/svg" xmlns:xlink="http://www.w3.org/1999/xlink" viewBox="0 0 48 48"><defs><style>.cls-1{fill:#3ae668;}.cls-2{fill:#24af69;}.cls-3{clip-path:url(#clippath);}</style><clipPath id="clippath"><path class="cls-1" d="M38.4,7.31c10.25,8.78,7.18,14.14,3.91,19.59-3.26,5.45-16.21,23.59-25.88,19.82-7.65-2.98-14.66-14.94-14.51-22.45C2.02,19.41,15.34.52,24.37,1.49c6.05.65,8.48,1.07,14.03,5.82Z"/></clipPath></defs><path class="cls-1" d="M38.4,7.31c10.25,8.78,7.18,14.14,3.91,19.59-3.26,5.45-16.21,23.59-25.88,19.82-7.65-2.98-14.66-14.94-14.51-22.45C2.02,19.41,15.34.52,24.37,1.49c6.05.65,8.48,1.07,14.03,5.82Z"/><g class="cls-3"><path class="cls-2" d="M1.92,37.67s11.83,3.89,26.04-1.72c14.22-5.61,20.72-16.42,20.72-16.42l-3.27,17.57-3.07,23.61-35.69-1.15L1.92,37.67Z"/></g></svg>