<?xml version="1.0" encoding="UTF-8"?><svg id="Layer_1" xmlns="http://www.w3.org/2000/svg" viewBox="0 0 256 256"><defs><style>.cls-1{fill:#ff807d;}</style></defs><rect class="cls-1" x="2" y="197" width="252" height="59" rx="29.5" ry="29.5"/><path d="M177.52,229.95c-.2,0-.4,0-.61,0-8.56-.16-16.55-3.64-22.5-9.81l-43.81-45.45c-24.63,7.51-46.08,2.65-62.33-14.21-10.63-11.03-16.4-24.23-15.82-36.21.36-7.48,3.74-22.64,13.95-26.47,5.09-1.91,10.61-.47,14.78,3.86l15.75,16.34c1.77,1.83,4.21,2.06,5.52,2.02,2.42-.06,4.74-1,6.38-2.58l11.53-11.11c1.38-1.5,2.75-8.26.29-11.01l-19.2-18.33c-3.35-3.48-4.5-8.1-3.09-12.36,1.29-3.89,6.16-10.86,24.15-13.8,14.5-2.37,29.95,3.66,42.36,16.55,16.25,16.86,20.31,38.48,11.9,62.81l43.81,45.45c5.94,6.17,9.13,14.28,8.97,22.85s-3.64,16.56-9.81,22.5c-6.02,5.8-13.9,8.98-22.24,8.98ZM115.51,153.82l51.87,53.82c2.61,2.71,6.11,4.23,9.87,4.3,3.76.04,7.32-1.33,10.02-3.94,2.71-2.61,4.23-6.11,4.3-9.87s-1.33-7.32-3.94-10.02l-51.87-53.82,2.27-5.45c8.35-20.03,6.35-36.06-6.11-48.99-8.13-8.44-18.04-12.66-26.5-11.27-1.91.31-3.76.76-5.4,1.24l13.51,12.9c4.72,4.9,7,11.9,6.41,19.7-.51,6.77-3.16,13.07-7.09,16.86l-11.53,11.11c-4.85,4.67-11.56,7.45-18.43,7.62-7.35.19-14.08-2.49-18.93-7.52l-12.11-12.56c-.7,2.04-1.31,4.62-1.44,7.21-.33,6.84,3.81,15.6,10.8,22.85,12.46,12.93,28.41,15.52,48.73,7.92l5.53-2.07Z"/></svg>